<svg xmlns="http://www.w3.org/2000/svg" viewBox="0 0 587.64 587.8"><defs><style>.cls-1,.cls-2,.cls-3{stroke:#fc0;stroke-miterlimit:10;}.cls-1{stroke-width:16px;}.cls-2,.cls-3{fill:none;}.cls-2{stroke-width:8px;}.cls-3{stroke-linecap:round;stroke-width:19px;}</style></defs><title>CoinIconActive</title><g id="Camada_2" data-name="Camada 2"><g id="Camada_1-2" data-name="Camada 1"><g id="Camada_1-2-2" data-name="Camada 1-2"><path class="cls-1" d="M578.18,284.94a21.49,21.49,0,0,0-5.09-7.7,27.36,27.36,0,0,0-7.69-5.15c-.7-.34-1.41-.64-2.12-.93a18.31,18.31,0,0,1-2-1.08,18.07,18.07,0,0,1-8-10.77,38.37,38.37,0,0,1-.75-4.54c-.22-1.52-.45-3.05-.7-4.57-.5-3-1.06-6.08-1.68-9.1s-1.31-6-2.06-9a30.81,30.81,0,0,1-1.35-9,16.25,16.25,0,0,1,2.66-8.6,23.93,23.93,0,0,1,2.93-3.51c.53-.56,1.08-1.12,1.56-1.73l.74-.9.69-.94a24.89,24.89,0,0,0,4-8.39,22.21,22.21,0,0,0,.34-9.29A24.55,24.55,0,0,0,550,174.11a23.75,23.75,0,0,0-8.57-3.63,32.82,32.82,0,0,0-4.63-.63,22.68,22.68,0,0,1-2.33-.08,17.17,17.17,0,0,1-2.27-.1,17,17,0,0,1-8.31-3.34,16.67,16.67,0,0,1-3.21-3.18c-.47-.59-.86-1.24-1.28-1.88l-1.29-1.92L507.86,144c-1.73-2.55-3.41-5.17-5.18-7.66a17.33,17.33,0,0,1-3.17-8.36,17.69,17.69,0,0,1,1.4-8.82,30.54,30.54,0,0,0,2.24-9.08,22.58,22.58,0,0,0-1.24-9.29,24,24,0,0,0-4.94-8,25.86,25.86,0,0,0-7.44-5.69,20.93,20.93,0,0,0-9.12-2.22,27,27,0,0,0-9.25,1.51c-.75.22-1.47.54-2.2.81s-1.4.56-2.12.77a17,17,0,0,1-13-1.39A42.75,42.75,0,0,1,450,84l-3.79-2.66q-7.61-5.28-15.39-10.3L427,68.54a17.39,17.39,0,0,1-3.58-2.69A16.59,16.59,0,0,1,419,58.23a16.36,16.36,0,0,1-.55-4.41l-.09-2.35c-.09-.78-.12-1.57-.25-2.35a26.23,26.23,0,0,0-2.89-9A21.43,21.43,0,0,0,409,33a26.12,26.12,0,0,0-8.5-4.09,27.56,27.56,0,0,0-4.66-.89,22.29,22.29,0,0,0-13.68,3.28,29.24,29.24,0,0,0-3.81,2.81c-1.21,1-2.3,2.22-3.36,3.19a15.48,15.48,0,0,1-12.28,3.78l-1.09-.18-1.08-.26-2.24-.59c-3-.76-6-1.48-9-2.14q-9.06-2-18.26-3.31a19,19,0,0,1-4.34-1,15.41,15.41,0,0,1-3.89-2,15.83,15.83,0,0,1-5.43-6.81,32.65,32.65,0,0,0-4.81-8.12,26.17,26.17,0,0,0-3.33-3.41,23.82,23.82,0,0,0-4-2.67A23,23,0,0,0,296,8.07a26.65,26.65,0,0,0-9.44,1,22.05,22.05,0,0,0-8.31,4.69,27.71,27.71,0,0,0-5.78,7.53c-.37.7-.74,1.39-1.06,2.13l-.92,2.1a15.6,15.6,0,0,1-2.39,3.66,15.21,15.21,0,0,1-9.43,5.07l-2.3.35-4.58.74c-3,.51-6.08,1.09-9.11,1.71s-6.05,1.3-9.06,2c-1.49.35-3,.77-4.48,1.09a25.31,25.31,0,0,1-4.42.63A16.07,16.07,0,0,1,216.25,39a17.69,17.69,0,0,1-3.62-2.5c-1.06-.94-2.16-2.18-3.42-3.16A24.66,24.66,0,0,0,200.77,29a31.38,31.38,0,0,0-4.69-.93,25.66,25.66,0,0,0-4.8,0,23.78,23.78,0,0,0-20.67,17.5,17.24,17.24,0,0,0-.5,2.35,19.21,19.21,0,0,0-.25,2.38l-.16,2.29c-.08.74-.13,1.49-.27,2.22a19.67,19.67,0,0,1-3.08,8.2,20.07,20.07,0,0,1-6.52,5.85,134.86,134.86,0,0,0-15.73,9.89c-1.25.92-2.48,1.87-3.71,2.83s-2.4,2-3.59,2.84a20.3,20.3,0,0,1-7.94,3.7,16.52,16.52,0,0,1-8.62-.66c-.72-.21-1.38-.51-2.08-.78s-1.47-.62-2.23-.88a23.06,23.06,0,0,0-4.72-1,21.67,21.67,0,0,0-4.83,0,14.67,14.67,0,0,0-2.38.44c-.77.2-1.56.35-2.31.61a25.15,25.15,0,0,0-8.41,4.54,23.5,23.5,0,0,0-8.57,16.69,28.16,28.16,0,0,0,1.12,9.49c.24.76.48,1.55.74,2.29l.43,1,.34,1a18,18,0,0,1,.73,4.3,17.51,17.51,0,0,1-1.77,8.48,17.91,17.91,0,0,1-2.4,3.68c-1,1.25-1.89,2.48-2.81,3.73q-5.5,7.47-10.43,15.36c-.82,1.31-1.62,2.63-2.42,4a33.68,33.68,0,0,1-2.4,3.79,14.54,14.54,0,0,1-11.35,5.46c-.73,0-1.57.06-2.35.09s-1.58.13-2.36.23a28.09,28.09,0,0,0-9.14,2.69,21.87,21.87,0,0,0-7.41,6.06,25.82,25.82,0,0,0-4.35,8.49,23.53,23.53,0,0,0-1,9.5,22.2,22.2,0,0,0,1,4.71,24,24,0,0,0,2,4.37,27.13,27.13,0,0,0,2.69,3.94c.52.6,1,1.23,1.56,1.79l1.6,1.68a15.06,15.06,0,0,1,3.85,7.68,14.7,14.7,0,0,1,.14,4.34,15.26,15.26,0,0,1-.41,2.14c-.2.7-.44,1.42-.64,2.19-1.26,4.46-2.29,8.87-3.21,13.44s-1.68,9.3-2.21,14h0a16.06,16.06,0,0,1-5.54,11.59,15.23,15.23,0,0,1-2.7,1.89c-1,.55-2,.91-3.1,1.47a33.71,33.71,0,0,0-6.1,3.74,23.85,23.85,0,0,0-5,5.23,21.15,21.15,0,0,0-3,6.59,26.71,26.71,0,0,0-.8,7.17,25.54,25.54,0,0,0,1.05,7.11,21.75,21.75,0,0,0,3.17,6.49,23.67,23.67,0,0,0,5,5.14,33.44,33.44,0,0,0,6.13,3.68c1.1.54,2.15.91,3.1,1.45a17,17,0,0,1,2.69,1.91,17.18,17.18,0,0,1,2.22,2.45A18.41,18.41,0,0,1,33,325.77a16.72,16.72,0,0,1,1,3.15c.22,1.08.25,2.21.43,3.4.58,4.65,1.33,9.25,2.25,13.83s2,9.11,3.24,13.65a16.28,16.28,0,0,1-1,12.93A14.58,14.58,0,0,1,37,375.48a14.46,14.46,0,0,1-1.12,1.22c-.42.42-.86.84-1.25,1.28a25,25,0,0,0-6.25,12.73,22.63,22.63,0,0,0-.37,3.57V397a7,7,0,0,0,.11.89,22.59,22.59,0,0,0,2,6.88,25.36,25.36,0,0,0,1.73,3.15,24.05,24.05,0,0,0,14.42,10c.58.15,1.18.21,1.76.32l.89.14.9.05c.6,0,1.22.09,1.79.09a15.88,15.88,0,0,1,1.69,0,18.81,18.81,0,0,1,6.51,1.6,19.13,19.13,0,0,1,9.47,9.22h0A156.29,156.29,0,0,0,79.5,445c1.82,2.5,3.76,5,5.71,7.34a16.87,16.87,0,0,1,2,17,24.79,24.79,0,0,0-2,13.9,20,20,0,0,0,.53,2.32c.11.38.18.77.31,1.15l.41,1.11a24.62,24.62,0,0,0,4.85,8.09A22.14,22.14,0,0,0,99,501.4a23.82,23.82,0,0,0,9.23,1.9,27.18,27.18,0,0,0,9.28-1.58,28.53,28.53,0,0,1,4.35-1.37,21.29,21.29,0,0,1,4.51-.35,19.45,19.45,0,0,1,8.65,2.43,26.08,26.08,0,0,1,3.71,2.65c1.24,1,2.47,1.88,3.72,2.8q7.5,5.52,15.45,10.36c1.32.81,2.67,1.61,4,2.38a15,15,0,0,1,7.76,10.57,32,32,0,0,1,.33,4.58c0,.78.13,1.56.2,2.34a17.94,17.94,0,0,0,.38,2.31,25.73,25.73,0,0,0,3.31,8.76,21.24,21.24,0,0,0,6.51,6.73,26.29,26.29,0,0,0,8.62,3.65,22,22,0,0,0,9.35.15,22.64,22.64,0,0,0,4.48-1.41A26.93,26.93,0,0,0,207,556a31.85,31.85,0,0,0,3.7-2.87l1.7-1.61A16.18,16.18,0,0,1,214,550a15.78,15.78,0,0,1,13-2.79l4.48,1.2c3,.78,6,1.48,9,2.12,6.06,1.27,12.23,2.19,18.34,2.92a18.25,18.25,0,0,1,13.51,11.26,23.84,23.84,0,0,0,4.86,7.93,23,23,0,0,0,12.07,6.72,22.58,22.58,0,0,0,4.64.43,24.88,24.88,0,0,0,9.16-1.53,21.28,21.28,0,0,0,7.73-5.13,25.59,25.59,0,0,0,2.92-3.64,31.09,31.09,0,0,0,2.25-4.08c.35-.7.63-1.42.92-2.13l.5-1,.58-1a17.56,17.56,0,0,1,10.94-7.84c.75-.16,1.51-.29,2.28-.38l2.3-.33c1.53-.22,3.06-.46,4.59-.71q4.59-.78,9.13-1.72c3-.64,6-1.33,9-2.1L360.7,547a17.16,17.16,0,0,1,13.24,2.5l.94.67.89.74,1.68,1.59a32,32,0,0,0,3.62,2.93,25.35,25.35,0,0,0,8.44,3.81,21.74,21.74,0,0,0,9.26.11c6-1.29,11.8-4.68,15.2-9.93a23.35,23.35,0,0,0,3.37-8.62c.16-.76.24-1.53.35-2.3a18,18,0,0,0,.17-2.32,31.12,31.12,0,0,1,.26-4.62,17.38,17.38,0,0,1,7.2-11.43c1.26-.88,2.67-1.54,4-2.33a116.45,116.45,0,0,0,15.37-10.4,39,39,0,0,1,7.72-5.1,25.44,25.44,0,0,1,8.88-2.49,28.21,28.21,0,0,1,9.2.78c3,.7,5.89,2,9,2.15a20.14,20.14,0,0,0,9.06-1.64,22.49,22.49,0,0,0,7.51-5.33,25,25,0,0,0,6.59-16.91,25,25,0,0,1-6.6,16.89,22.6,22.6,0,0,1-7.52,5.32,19.9,19.9,0,0,1-9,1.63c-3.12-.15-6-1.46-9-2.16a28.36,28.36,0,0,0-9.22-.79,25.59,25.59,0,0,0-8.9,2.48,39.4,39.4,0,0,0-7.74,5.1,117.29,117.29,0,0,1-15.37,10.38c-1.34.78-2.75,1.44-4,2.33a17.4,17.4,0,0,0-7.26,11.5,32.75,32.75,0,0,0-.28,4.64c0,.77-.11,1.54-.16,2.31a17.84,17.84,0,0,1-.35,2.29,23.37,23.37,0,0,1-3.37,8.55c-3.37,5.21-9.11,8.58-15.11,9.85a21.48,21.48,0,0,1-9.17-.12,24.92,24.92,0,0,1-8.38-3.79,30.51,30.51,0,0,1-3.59-2.92L376,550.77l-.9-.75-.95-.68a17.45,17.45,0,0,0-13.39-2.55l-4.5,1.16c-3,.76-6,1.45-9,2.09s-6.07,1.19-9.12,1.7c-1.53.25-3.05.5-4.58.71l-2.3.32a22.08,22.08,0,0,0-2.3.39,17.74,17.74,0,0,0-8.16,4.34,18.46,18.46,0,0,0-3,3.6l-.58,1-.51,1c-.3.72-.58,1.44-.92,2.13a32,32,0,0,1-2.24,4,24.43,24.43,0,0,1-2.89,3.59,20.27,20.27,0,0,1-3.53,2.94A19.53,19.53,0,0,1,303,578a24.33,24.33,0,0,1-9.05,1.51,22.81,22.81,0,0,1-4.59-.44,22.66,22.66,0,0,1-11.87-6.65,23.08,23.08,0,0,1-4.75-7.82A18.72,18.72,0,0,0,259,553c-6.17-.76-12.27-1.68-18.32-3-3-.65-6-1.35-9-2.14l-4.49-1.22a16.3,16.3,0,0,0-13.42,2.89,15.35,15.35,0,0,0-1.77,1.55l-1.68,1.58a33.83,33.83,0,0,1-3.63,2.81,25.2,25.2,0,0,1-4,2.21,21.6,21.6,0,0,1-4.36,1.36,21.18,21.18,0,0,1-9.07-.17,25.94,25.94,0,0,1-8.38-3.58,20.51,20.51,0,0,1-6.28-6.53,25.28,25.28,0,0,1-3.2-8.52c-.16-.75-.23-1.51-.35-2.26a21.88,21.88,0,0,1-.2-2.29,33.36,33.36,0,0,0-.32-4.68,15.85,15.85,0,0,0-4.33-8.32,16.21,16.21,0,0,0-3.8-2.83c-1.34-.77-2.65-1.56-4-2.37-5.27-3.22-10.4-6.69-15.36-10.36-1.24-.92-2.48-1.86-3.68-2.79a26,26,0,0,0-3.83-2.75,20.32,20.32,0,0,0-9.06-2.57,20.83,20.83,0,0,0-4.73.36,22.18,22.18,0,0,0-2.3.6c-.76.21-1.48.59-2.21.79a26.12,26.12,0,0,1-8.93,1.49,21.85,21.85,0,0,1-16.14-7.08,23.46,23.46,0,0,1-4.61-7.75l-.39-1.07c-.13-.36-.2-.73-.3-1.09a20.23,20.23,0,0,1-.5-2.21,23.82,23.82,0,0,1,2-13.28,18,18,0,0,0-2.13-18.17c-2-2.43-3.85-4.83-5.67-7.33a154.84,154.84,0,0,1-10-15.57h0A20.38,20.38,0,0,0,53.43,417.1a17.61,17.61,0,0,0-1.78,0c-.6,0-1.13-.07-1.7-.09l-.84-.05-.84-.14c-.55-.1-1.11-.16-1.66-.3a22.12,22.12,0,0,1-11.46-6.78,19.38,19.38,0,0,1-3.7-5.62,20.76,20.76,0,0,1-1.83-6.47,23.15,23.15,0,0,1,2.27-13.14A23.71,23.71,0,0,1,35.76,379c.38-.42.78-.81,1.19-1.21a14.56,14.56,0,0,0,1.24-1.34,16.85,16.85,0,0,0,2-3,17.61,17.61,0,0,0,2.06-6.94,18.31,18.31,0,0,0-.87-7.16c-1.21-4.44-2.28-9-3.17-13.51s-1.63-9.13-2.19-13.71c-.17-1.11-.19-2.31-.43-3.52a19.41,19.41,0,0,0-1.08-3.5,17.94,17.94,0,0,0-1.81-3.19,19.75,19.75,0,0,0-2.45-2.72,19.11,19.11,0,0,0-3-2.12c-1.07-.61-2.23-1-3.21-1.52a31.42,31.42,0,0,1-5.81-3.49,20.86,20.86,0,0,1-7.52-10.77,23.7,23.7,0,0,1-1-6.65,25.33,25.33,0,0,1,.8-6.65,20.22,20.22,0,0,1,7.37-10.88,32.42,32.42,0,0,1,5.77-3.53c1-.5,2.13-.9,3.2-1.51a17.87,17.87,0,0,0,9.17-15v.08A174.76,174.76,0,0,1,39.11,239c.67-3,1.42-6,2.25-8.9.19-.72.44-1.47.66-2.24a17.53,17.53,0,0,0,.46-2.4,16.57,16.57,0,0,0-.15-4.87A17,17,0,0,0,38,212l-1.6-1.67c-.52-.53-1-1.13-1.47-1.7a27.24,27.24,0,0,1-2.51-3.69,23,23,0,0,1-1.82-4.05,20.43,20.43,0,0,1-.92-4.31,23.28,23.28,0,0,1,11.8-22.18A26.7,26.7,0,0,1,50,171.91c.74-.09,1.49-.15,2.24-.21s1.45-.07,2.26-.08a16.46,16.46,0,0,0,12.82-6.17,34.8,34.8,0,0,0,2.56-4c.79-1.31,1.59-2.63,2.4-3.93q4.89-7.8,10.37-15.22c.91-1.24,1.82-2.46,2.75-3.66A19.52,19.52,0,0,0,90,125.17a20.52,20.52,0,0,0-.81-4.79l-.38-1.16-.45-1.1c-.25-.71-.45-1.41-.68-2.11a26.29,26.29,0,0,1-1-8.78,21.55,21.55,0,0,1,7.83-15.3,23.2,23.2,0,0,1,7.76-4.19c.7-.25,1.43-.38,2.15-.58a13.25,13.25,0,0,1,2.16-.4,20.23,20.23,0,0,1,4.4,0,21.24,21.24,0,0,1,4.31.93c.7.23,1.38.5,2.06.8a18.25,18.25,0,0,0,2.26.85,18.58,18.58,0,0,0,9.61.71,22.11,22.11,0,0,0,8.69-4c1.3-1,2.45-2,3.66-2.9s2.41-1.88,3.64-2.78a133.48,133.48,0,0,1,15.56-9.81,22,22,0,0,0,7.11-6.42,21.43,21.43,0,0,0,3.38-9c.15-.79.2-1.58.29-2.37l.15-2.32a16.41,16.41,0,0,1,.24-2.21,14.6,14.6,0,0,1,.46-2.24,22,22,0,0,1,19-16.2,23.42,23.42,0,0,1,4.43,0,29.77,29.77,0,0,1,4.38.87A22.71,22.71,0,0,1,208,34.76c1.19.91,2.13,2,3.37,3.12a20.25,20.25,0,0,0,4,2.74,18.12,18.12,0,0,0,9.4,2,27.82,27.82,0,0,0,4.72-.68c1.56-.35,3-.75,4.51-1.11,3-.72,6-1.38,9-2s6-1.2,9.06-1.71l4.55-.74,2.28-.35a16.14,16.14,0,0,0,2.37-.51,17.07,17.07,0,0,0,10.76-9.22c.18-.36.31-.74.47-1.1l.46-1c.3-.68.65-1.35,1-2a26.33,26.33,0,0,1,5.42-7.08,20.27,20.27,0,0,1,7.66-4.34,23.38,23.38,0,0,1,17.34,1.38,22.27,22.27,0,0,1,6.82,5.65,31.18,31.18,0,0,1,4.6,7.73,17.52,17.52,0,0,0,10.26,9.67,20.69,20.69,0,0,0,4.67,1c6.07.86,12.14,1.94,18.14,3.23q4.52,1,9,2.11l2.23.57,1.17.28,1.19.2a16.89,16.89,0,0,0,13.41-4.18c1.21-1.11,2.17-2.22,3.34-3.18a30.76,30.76,0,0,1,3.61-2.69,20.88,20.88,0,0,1,12.84-3.1,25.4,25.4,0,0,1,4.41.83A22.1,22.1,0,0,1,414,40.77a25,25,0,0,1,2.77,8.53c.13.74.16,1.5.25,2.25l.09,2.27a17.81,17.81,0,0,0,5.4,12.89,18.88,18.88,0,0,0,3.8,2.85L430.24,72q7.78,5,15.38,10.23l3.79,2.64a40.66,40.66,0,0,0,3.88,2.63A18,18,0,0,0,467.14,89c.76-.22,1.5-.53,2.22-.81s1.4-.58,2.13-.8a26.19,26.19,0,0,1,8.9-1.48,21.77,21.77,0,0,1,4.47.55A22.17,22.17,0,0,1,489.1,88a25,25,0,0,1,7.17,5.46A22.94,22.94,0,0,1,501,101.1a21.63,21.63,0,0,1,1.22,8.91,29.76,29.76,0,0,1-2.15,8.81,18.53,18.53,0,0,0-1.43,9.24,18,18,0,0,0,3.34,8.73c1.8,2.53,3.46,5.1,5.2,7.65l10.31,15.33,1.29,1.92c.43.65.84,1.32,1.33,1.94a17.63,17.63,0,0,0,12,6.74,16.67,16.67,0,0,0,2.34.11c.77,0,1.53,0,2.29.06a32.87,32.87,0,0,1,4.53.61,23,23,0,0,1,8.36,3.51,24,24,0,0,1,9.39,15.14,21.63,21.63,0,0,1-.31,9.06,24.3,24.3,0,0,1-3.87,8.23l-.68.93-.72.88c-.48.6-1,1.15-1.53,1.71a23.9,23.9,0,0,0-3,3.59,16.71,16.71,0,0,0-2.71,8.85,31.53,31.53,0,0,0,1.39,9.16q1.14,4.5,2.08,9t1.71,9.08c.25,1.52.48,3,.71,4.56a37.42,37.42,0,0,0,.77,4.58,18.48,18.48,0,0,0,8.17,10.94,16.29,16.29,0,0,0,2.06,1.1c.72.29,1.43.6,2.12.92a27.22,27.22,0,0,1,7.6,5.09,21.06,21.06,0,0,1,5,7.59,24.68,24.68,0,0,1,1.54,9,22.53,22.53,0,0,1-1.83,8.95,22.13,22.13,0,0,1-5.3,7.43,28.61,28.61,0,0,1-7.68,5,19.36,19.36,0,0,0-7.6,5.2,19,19,0,0,0-4.21,8.19,22.35,22.35,0,0,0-.39,2.29l-.33,2.29L551.3,338c-.52,3-1.09,6.06-1.72,9.08s-1.29,6-2,9c-.33,1.51-.8,3-1,4.52a19.19,19.19,0,0,0,3,13.29,18.76,18.76,0,0,0,3,3.53l1.55,1.7c.48.6.93,1.22,1.39,1.84a23.31,23.31,0,0,1-6.29,32.36,23,23,0,0,1-8.71,3.58c-3,.68-6.17.11-9.19.91a19.84,19.84,0,0,0-11.41,7.42c-.93,1.23-1.63,2.62-2.44,3.92q-4.82,7.9-10.16,15.45l-2.71,3.75a35.27,35.27,0,0,0-2.55,3.86,24.17,24.17,0,0,0-1.91,4.21,18,18,0,0,0-.85,4.53c-.79,6.37,4.62,11.55,3.43,17.95,1.2-6.4-4.21-11.59-3.41-17.95a17.12,17.12,0,0,1,.86-4.53,25.15,25.15,0,0,1,1.9-4.2,37.68,37.68,0,0,1,2.56-3.84l2.71-3.75q5.36-7.55,10.18-15.44c.82-1.31,1.51-2.69,2.45-3.92a19.22,19.22,0,0,1,3.17-3.33,19.6,19.6,0,0,1,8.2-4c3-.8,6.15-.23,9.19-.9a23.45,23.45,0,0,0,15.12-36.13c-.46-.61-.91-1.25-1.39-1.85l-1.56-1.72a18.88,18.88,0,0,1-6.06-12.08,19.6,19.6,0,0,1,.09-4.59c.22-1.52.69-3,1-4.5q1.08-4.5,2-9t1.74-9.09l.74-4.56.35-2.29a19.55,19.55,0,0,1,.38-2.27,18.66,18.66,0,0,1,4.17-8.09,19.38,19.38,0,0,1,7.52-5.13,28.4,28.4,0,0,0,7.76-5,22.3,22.3,0,0,0,5.37-7.51,22.83,22.83,0,0,0,1.86-9A24.78,24.78,0,0,0,578.18,284.94Z"/><path class="cls-1" d="M507.77,404.75c6.72-5.77,15-9.45,23.58-11.8,0,0,1,0,1.12-.31s-.56-1-.56-1a80.85,80.85,0,0,1-5.58-12.15,52.67,52.67,0,0,1-2.92-13,47,47,0,0,1,.65-13.23c.26-1.07.47-2.16.76-3.24s.63-2.12.92-3.24c.58-2.22,1.1-4.41,1.58-6.63q1.42-6.66,2.26-13.43c.14-1.12.27-2.25.39-3.38a14.78,14.78,0,0,1,.61-3.14,15,15,0,0,1,2.15-4.26c.3-.4.66-.85,1-1.3,2.88-3.6,5.07-7.6,7.7-11.16a29,29,0,0,1,4.39-4.88,14.51,14.51,0,0,1,5.49-3.37c.37-.1,1.34-.19,1.4-.56s-.86-.73-1.18-.92c-3.84-2.34-6.9-5.76-9.95-9A50.52,50.52,0,0,1,533.73,274a41.32,41.32,0,0,1-4.44-12.49c-.19-1.09-.39-2.18-.49-3.29l-.35-3.38a56,56,0,0,0-1.23-6.78c-.28-1.12-.59-2.22-.94-3.32l-1-3.22c-.3-1.08-.55-2.17-.82-3.25s-.43-2.19-.65-3.29a54.09,54.09,0,0,1-.63-13.33,52.78,52.78,0,0,1,8.7-25c.14-.22.67-.64.58-.89s-.77-.2-1-.27c-8.57-2.3-17-5.74-23.8-11.4a42.66,42.66,0,0,1-8.79-9.83c-.63-.91-1.18-1.87-1.72-2.83l-1.66-2.94c-1.13-2-2.33-3.87-3.62-5.74s-2.64-3.67-4.06-5.43l-2.11-2.6c-.7-.86-1.31-1.79-2-2.68a48.12,48.12,0,0,1-8.11-31.52c.08-1.11.23-2.21.41-3.31l.12-.82c0-.3.07-.6.09-.91a3,3,0,0,0-.5-2,2,2,0,0,0-1.06-.62,4.82,4.82,0,0,0-1-.08,17.05,17.05,0,0,0-1.75.21c-1.1.16-2.2.35-3.3.42l-1.66.15h-1.66c-1.1.07-2.21,0-3.32,0a48.34,48.34,0,0,1-13-2.33,49.45,49.45,0,0,1-17.25-9.78c-1.76-1.44-3.57-2.78-5.43-4.06s-3.77-2.49-5.73-3.62-3.93-2.15-5.78-3.38a47,47,0,0,1-10-8.71,50.11,50.11,0,0,1-7.22-11.15A69.52,69.52,0,0,1,393.07,58s0-.56-.16-.62-.56.31-.56.31a74.92,74.92,0,0,1-12.24,5.73A49.86,49.86,0,0,1,367,66.25a55.22,55.22,0,0,1-13.46-.81c-4.45-.73-8.76-2.23-13.23-3.12s-8.94-1.72-13.46-2.27c-.56-.07-1.14-.14-1.7-.19a3.77,3.77,0,0,1-1-.09,21.85,21.85,0,0,1-3.92-.9,17.37,17.37,0,0,1-3-1.39,12.87,12.87,0,0,1-1.41-.89l-1.38-1c-3.81-2.59-7.84-4.77-11.44-7.46a29.43,29.43,0,0,1-5-4.53,21.67,21.67,0,0,1-3.52-5.71s-.06-.38-.16-.4-.26.35-.26.35a72.76,72.76,0,0,1-9,10.12A51.67,51.67,0,0,1,274,55.74a48.17,48.17,0,0,1-12.77,4.39c-2.21.46-4.48.65-6.72,1s-4.48.73-6.7,1.18-4.44,1-6.64,1.5-4.36,1.25-6.59,1.66a47.88,47.88,0,0,1-13.51.87c-9.07-.63-20.88-16.44-25.51-8.68s16.41,8.12,25.5,8.8a47.42,47.42,0,0,0,13.55-.81c2.24-.4,4.41-1.12,6.61-1.63s4.41-1,6.63-1.47,4.46-.82,6.7-1.15,4.5-.53,6.74-1A49,49,0,0,0,274.18,56a51.63,51.63,0,0,0,11.16-7.79,65.91,65.91,0,0,0,5.28-5.42,4,4,0,0,1,5.64-.46,4.32,4.32,0,0,1,.65.7c.22.28.45.56.68.83a29.32,29.32,0,0,0,5,4.64c3.67,2.74,7.69,4.89,11.37,7.51l1.36,1a15.08,15.08,0,0,0,1.46.94,19.32,19.32,0,0,0,3.23,1.5,17.6,17.6,0,0,0,3.36.85,14,14,0,0,0,1.71.19l1.68.2c4.49.57,9,1.35,13.38,2.32,2.22.49,4.4,1,6.59,1.65,1.09.32,2.19.59,3.31.84l1.67.39,1.68.31A55.54,55.54,0,0,0,367,67.1a50.41,50.41,0,0,0,13.4-2.81c.87-.31,1.74-.63,2.59-1a9.73,9.73,0,0,1,12.57,5.31c.34.8.69,1.59,1.06,2.37A51,51,0,0,0,404,82.4a47.52,47.52,0,0,0,10.21,8.93c1.88,1.27,3.9,2.33,5.82,3.43s3.81,2.32,5.64,3.59,3.63,2.6,5.33,4a50.71,50.71,0,0,0,17.62,10A49.2,49.2,0,0,0,462,114.82c1.13,0,2.27.09,3.41,0h1.7l1.7-.15c1.13-.07,2.25-.26,3.37-.42a13.81,13.81,0,0,1,1.59-.19c.5,0,.93.07,1,.26a1.75,1.75,0,0,1,.2,1.16,2.87,2.87,0,0,1-.07.77l-.13.84c-.18,1.12-.34,2.24-.43,3.37a53.41,53.41,0,0,0-.17,6.81,49.7,49.7,0,0,0,8.43,25.59c.67.92,1.3,1.88,2,2.76l2.12,2.63q2.1,2.59,4,5.36c1.26,1.83,2.44,3.72,3.55,5.65l1.64,2.93a32.84,32.84,0,0,0,1.77,2.92,44.14,44.14,0,0,0,9.06,10.17c6.76,5.64,20.24,3.36,23.33,11.46s-7.79,16-8.45,24.85a55.78,55.78,0,0,0,.62,13.72c.22,1.13.41,2.26.65,3.38s.53,2.23.83,3.33l1,3.28c.33,1.07.64,2.14.9,3.22a52.6,52.6,0,0,1,1.18,6.57l.35,3.38c.1,1.14.3,2.28.5,3.41a42.84,42.84,0,0,0,4.61,13,52.67,52.67,0,0,0,8.12,11.1c2.81,3,9.51,4.25,9,8.31-.22,1.87-3.28,1.85-4.69,3.08a31.12,31.12,0,0,0-4.65,5.15c-2.73,3.7-4.9,7.67-7.67,11.11-.35.43-.7.86-1.07,1.36a15.83,15.83,0,0,0-2.41,4.76,16.74,16.74,0,0,0-.7,3.49c-.11,1.12-.23,2.23-.38,3.35-.55,4.45-1.3,8.88-2.25,13.26-.47,2.19-1,4.39-1.55,6.54-.28,1.06-.63,2.17-.94,3.26s-.52,2.24-.78,3.35a48.67,48.67,0,0,0-.69,13.73,54.25,54.25,0,0,0,3,13.39v.12a12.66,12.66,0,0,1-6.43,15.65,53,53,0,0,0-11.66,7.5,50.44,50.44,0,0,0-9.15,10.2q-.93,1.44-1.83,2.91l-1.64,3a55.59,55.59,0,0,1-3.4,5.72c-1.22,1.85-2.54,3.64-3.94,5.37s-2.91,3.5-4.18,5.38a46.5,46.5,0,0,0-6,12.33,50.62,50.62,0,0,0-2.19,13.54,60.15,60.15,0,0,0,.21,6.85c.07,1.14.24,2.26.36,3.4a7.5,7.5,0,0,1,.09,1.49,2.35,2.35,0,0,1-.09.53.42.42,0,0,1-.11.15,2.7,2.7,0,0,1-1.13.07,11.86,11.86,0,0,1-1.62-.19c-1.12-.15-2.24-.33-3.39-.4a49.39,49.39,0,0,0-6.88-.12,52.06,52.06,0,0,0-6.82.84,54.31,54.31,0,0,0-6.65,1.78A49.35,49.35,0,0,0,436,482.42c-1.9,1.32-3.62,2.69-5.46,4S426.9,489,425,490.25s-3.74,2.46-5.64,3.65-3.85,2.31-5.75,3.62a49.23,49.23,0,0,0-10.15,9.23,55.27,55.27,0,0,0-9.37,16.77,4.94,4.94,0,0,1-6.32,3,6,6,0,0,1-.58-.26l-.12-.06a33.58,33.58,0,0,0-7.36-2.48c-5-1.12-10-1.52-14.75-2.9h-.12a18.63,18.63,0,0,0-9.8,1.1q-8.32,2.3-16.84,3.83c-2.85.52-5.66.93-8.57,1.36-1.46.18-2.9.52-4.35.82a31.37,31.37,0,0,0-4.25,1.25,49.91,49.91,0,0,0-15.42,8.57,71.67,71.67,0,0,0-6.44,6c-.36.38-.71.77-1,1.16a4.16,4.16,0,0,1-5.89.26,3.71,3.71,0,0,1-.5-.55v-.05a27.25,27.25,0,0,0-5.07-4.88c-3.73-2.8-7.82-4.88-11.6-7.28-.94-.6-1.87-1.23-2.76-1.88a12,12,0,0,0-3.23-1.74,27.65,27.65,0,0,0-6.93-1.19c-1.13-.1-2.25-.2-3.32-.38s-2.21-.45-3.33-.64c-2.26-.41-4.51-.72-6.71-1.14-1.1-.21-2.19-.44-3.26-.73l-3.28-.92c-2.22-.6-4.47-1.08-6.74-1.47a57,57,0,0,0-13.8-.7,51.77,51.77,0,0,0-13.53,2.88,50.56,50.56,0,0,0-4.92,2.06,5.55,5.55,0,0,1-7.38-2.64,5.44,5.44,0,0,1-.32-.88,44.5,44.5,0,0,0-5.33-12.1A41.28,41.28,0,0,0,174,496.59c-1.64-.83-3.19-1.58-4.72-2.45s-3-1.8-4.48-2.79-2.86-2.05-4.23-3.17-2.83-2.25-4.3-3.28a60.63,60.63,0,0,0-19.4-9.53,46.33,46.33,0,0,0-10.79-1.51,45.07,45.07,0,0,0-5.45.21c-.9.06-1.8.19-2.7.33l-1.34.21a6.77,6.77,0,0,1-1.19.13,1.23,1.23,0,0,1-.75-.15c-.09,0-.17-.21-.21-.55a15.8,15.8,0,0,1,.26-2.46c.13-.9.27-1.8.33-2.7s.18-1.81.18-2.72a46.52,46.52,0,0,0-.82-10.85,51.91,51.91,0,0,0-8.68-19.79c-1-1.48-2.15-2.95-3.27-4.31s-2.16-2.8-3.17-4.25a82.6,82.6,0,0,1-5.5-9,43.19,43.19,0,0,0-14.4-17.82c-6-4.3-17-1.27-20.4-7.78-1.47-2.77,5.89-11.08,5.89-11.08a32.1,32.1,0,0,0,3.7-13.35,31.56,31.56,0,0,0-.41-7c-.38-2.32-1.11-4.51-1.67-6.69q-1.78-6.57-3.14-13.25c-.92-4.44-1.69-8.92-2.33-13.41-.34-2.25-.55-4.49-1-6.8a32.18,32.18,0,0,0-2.11-6.63,34.25,34.25,0,0,0-3.49-6,47.08,47.08,0,0,0-4.57-5.21,70.39,70.39,0,0,0-8.8-7.07,1.71,1.71,0,0,1-.48-2.37,1.83,1.83,0,0,1,.48-.48h0c.45-.29,1-.57,1.46-.9s.92-.71,1.38-1.06a55.16,55.16,0,0,0,5.16-4.51,42.06,42.06,0,0,0,4.51-5.19,34.84,34.84,0,0,0,3.58-5.88,37.51,37.51,0,0,0,3.62-13.21,118.36,118.36,0,0,1,1.9-13.38,120.8,120.8,0,0,1,3.44-13.07,41.27,41.27,0,0,0,1.77-13.57,43.52,43.52,0,0,0-.84-6.82,43.27,43.27,0,0,0-2-6.57,41.61,41.61,0,0,0-3-6.15c-.57-1-1.25-1.92-1.89-2.88a21.74,21.74,0,0,1-1.7-2.72s-.1-.46,0-.56c3-3.27,8.69-1.57,12.72-3.33a41.27,41.27,0,0,0,11.39-7.38A40.6,40.6,0,0,0,91,175.15c.27-.5.56-1,.81-1.49l.72-1.54c.47-1,1-2,1.51-3a58.64,58.64,0,0,1,3.54-5.69c1.27-1.85,2.68-3.56,4.11-5.31.7-.89,1.41-1.77,2.06-2.7l1-1.37.94-1.41a54,54,0,0,0,6.07-12.1,45.52,45.52,0,0,0,2.62-13.27c0-1.13.09-2.26,0-3.39l-.06-1.69-.15-1.69c-.07-1.13-.26-2.25-.42-3.37-.07-.56-.2-1.12-.26-1.65a2,2,0,0,1,.26-1.42,1.69,1.69,0,0,1,1.37-.38,13.58,13.58,0,0,1,1.64.2c1.12.16,2.24.32,3.37.39a47.8,47.8,0,0,0,6.77.09,49.39,49.39,0,0,0,19.47-5.27,48.68,48.68,0,0,0,5.79-3.5c.94-.63,1.81-1.34,2.7-2s1.79-1.36,2.69-2q2.72-2,5.49-3.91t5.64-3.7c1.9-1.2,3.83-2.35,5.72-3.58a62.06,62.06,0,0,0,10.66-8.24,30.36,30.36,0,0,0,7-11.4,86.63,86.63,0,0,0,3.42-13,89.26,89.26,0,0,1-3.47,13A30.23,30.23,0,0,1,185,82a61.87,61.87,0,0,1-10.68,8.18c-1.89,1.22-3.82,2.36-5.74,3.55s-3.79,2.42-5.65,3.68-3.71,2.56-5.52,3.89l-2.71,2c-.89.68-1.76,1.4-2.7,2a46.67,46.67,0,0,1-5.76,3.45,48.7,48.7,0,0,1-26,5c-1.12-.07-2.23-.24-3.33-.4-.55-.07-1.12-.19-1.7-.21a2.1,2.1,0,0,0-1.76.53,2.42,2.42,0,0,0-.38,1.79c.07.59.19,1.13.25,1.69.16,1.1.35,2.21.41,3.32l.14,1.68,0,1.67c0,1.12,0,2.24,0,3.36a45,45,0,0,1-2.65,13.09,53.17,53.17,0,0,1-6.06,11.93l-.93,1.39-1,1.36c-.65.91-1.35,1.78-2,2.66-1.42,1.72-2.88,3.47-4.17,5.33a60.1,60.1,0,0,0-3.6,5.75c-.54,1-1.08,2-1.54,3l-.72,1.52c-.25.5-.54,1-.81,1.46a41.07,41.07,0,0,1-19.49,17.56c-4.09,1.76-8.43,3.31-12.88,3.25-.11,0-.36,0-.44,0s0,.39,0,.39v1.4a25.27,25.27,0,0,0,1.82,2.94c.62.93,1.28,1.83,1.83,2.81a39.53,39.53,0,0,1,3,6,40,40,0,0,1,1.9,6.41,43.92,43.92,0,0,1,.81,6.65,40.18,40.18,0,0,1-1.76,13.21,122.82,122.82,0,0,0-3.5,13.17,120.56,120.56,0,0,0-2,13.48,36.63,36.63,0,0,1-3.54,12.81,34.8,34.8,0,0,1-3.48,5.69,40.27,40.27,0,0,1-4.4,5,50.31,50.31,0,0,1-5.06,4.4c-.44.33-.9.72-1.32,1s-.93.56-1.43.87A7.28,7.28,0,0,0,39,293.06a4.33,4.33,0,0,0-.95,1.73c0,.11-.15.33-.11.44s.37.25.37.25A76,76,0,0,1,49,303.82a46.06,46.06,0,0,1,4.41,5.06,34.3,34.3,0,0,1,3.34,5.78,31.73,31.73,0,0,1,2,6.36c.4,2.17.62,4.47,1,6.73.63,4.52,1.4,9,2.31,13.5s2,8.93,3.12,13.34c.58,2.24,1.29,4.38,1.63,6.56a30.25,30.25,0,0,1,.38,6.65c-.2,9.08-6,16.67-10,24.78,0,0-.65.79-.51,1s1.12.09,1.12.09A41.47,41.47,0,0,1,92.3,418.58v.05a85.2,85.2,0,0,0,5.6,9.25c1,1.48,2.1,2.93,3.22,4.34s2.19,2.77,3.2,4.23a50.15,50.15,0,0,1,8.39,19.15,45.22,45.22,0,0,1,.79,10.45c0,.88-.11,1.75-.18,2.62s-.2,1.75-.32,2.62a15.21,15.21,0,0,0-.28,2.85,2.38,2.38,0,0,0,.9,1.8,3,3,0,0,0,1.79.49,8.16,8.16,0,0,0,1.47-.16l1.31-.19c.86-.14,1.73-.27,2.61-.33a48.22,48.22,0,0,1,5.24-.2A44.44,44.44,0,0,1,136.42,477a58.46,58.46,0,0,1,18.82,9.28c1.45,1,2.83,2.09,4.21,3.21s2.85,2.24,4.34,3.26a51.56,51.56,0,0,0,4.61,2.87c1.61.87,3.23,1.71,4.78,2.49a39.3,39.3,0,0,1,15.49,13.72,47.73,47.73,0,0,1,6.75,19.73s-.14,1.3.2,1.45,1.21-.81,1.21-.81a51.53,51.53,0,0,1,25-8.82,55.38,55.38,0,0,1,13.36.68c2.21.39,4.4.86,6.57,1.45l3.28.92c1.13.3,2.26.55,3.39.76,2.26.43,4.52.75,6.73,1.15,1.12.19,2.15.44,3.36.65s2.32.29,3.45.39a26.81,26.81,0,0,1,6.47,1.1,10.24,10.24,0,0,1,2.74,1.48c.93.69,1.89,1.34,2.86,2,3.89,2.47,7.93,4.53,11.47,7.21a25.12,25.12,0,0,1,4.73,4.54,22.35,22.35,0,0,1,3.19,5.65s.19,1.54.61,1.61,1-1.36,1-1.36c1.75-2.28,3.57-4.5,5.52-6.59a66.54,66.54,0,0,1,6.25-5.85A48.45,48.45,0,0,1,321.65,531c1.33-.48,2.72-.82,4.09-1.19a31,31,0,0,1,4.19-.79c2.83-.42,5.76-.84,8.61-1.36q8.61-1.53,17-3.86h.11a16.69,16.69,0,0,1,8.79-1c4.95,1.43,10,1.84,14.78,2.92a30.82,30.82,0,0,1,6.92,2.33A20.48,20.48,0,0,1,392,532.2s.82,1.44,1.26,1.33.44-1.77.44-1.77c2.14-8.61,5.65-17,11.32-23.76a47.25,47.25,0,0,1,9.75-8.87c1.8-1.26,3.74-2.37,5.67-3.58s3.81-2.43,5.69-3.69,3.73-2.55,5.56-3.87,3.64-2.74,5.43-4a47.68,47.68,0,0,1,11.74-6,51.9,51.9,0,0,1,6.39-1.72,48.18,48.18,0,0,1,6.56-.81,46.92,46.92,0,0,1,6.6.11c1.1.07,2.2.24,3.3.39.57.07,1.14.14,1.74.19a3.88,3.88,0,0,0,2.18-.3,2.21,2.21,0,0,0,1-1.11,3.85,3.85,0,0,0,.23-1.12,11.61,11.61,0,0,0-.11-1.86c-.11-1.11-.28-2.21-.35-3.31a56.52,56.52,0,0,1-.21-6.64,48.64,48.64,0,0,1,2.09-13A44.64,44.64,0,0,1,484,437a31.32,31.32,0,0,1,2-2.66c.74-.85,1.4-1.72,2.13-2.61a62.78,62.78,0,0,0,4-5.51,66.86,66.86,0,0,0,3.49-5.88l1.61-2.92c.57-.95,1.16-1.88,1.76-2.81A49,49,0,0,1,507.77,404.75Z"/><path class="cls-2" d="M348.42,365.14c0,8.12-7.74,12.33-15.19,8.49-13-6.66-26.05-13.36-38.69-20.51a10.09,10.09,0,0,0-11.24,0C271,360,258.47,366.3,246.06,372.9c-4.05,2.17-8.09,3.62-12.25.55s-4.57-7.25-3.61-12.2c2.58-14.57,4.8-29.27,7.53-43.83a6.65,6.65,0,0,0-2.24-6.86c-10.76-10.32-21.34-20.79-32-31.13-3.34-3.23-5.71-6.57-4.16-11.58s5.93-6.42,10.67-7.09c14.32-2,28.63-4.15,43-6.06a8.29,8.29,0,0,0,7.09-5.33c6.27-13.21,12.89-26.23,19.24-39.4,1.85-4.21,4.74-7.38,9.59-7.38s7.74,3.32,9.73,7.62c6.23,12.89,12.89,25.79,19,38.91a8.69,8.69,0,0,0,7.4,5.76c14.15,1.88,28.37,4,42.42,6,4.69.65,9,1.53,10.91,6.76s-1,8.94-4.57,12.43c-10.55,10.32-21,20.63-31.51,30.79a6,6,0,0,0-2.2,6.34c2.84,15.17,5.16,30.38,7.74,45.57A17.8,17.8,0,0,1,348.42,365.14Z"/><path class="cls-3" d="M103.83,222.2c-6.89,20.35-16.27,57.55-8.35,102,12.69,71.24,65.63,138.14,141,161.39,62.44,19.26,116.6,1.23,136.34-6.49"/><path class="cls-3" d="M476.82,375.21c6.89-20.35,16.26-57.55,8.34-102C472.48,202,419.54,135,344.18,111.79c-62.45-19.26-116.6-1.23-136.34,6.5"/></g><g id="Camada_1-2-3" data-name="Camada 1-2"><path class="cls-1" d="M578.18,284.94a21.49,21.49,0,0,0-5.09-7.7,27.36,27.36,0,0,0-7.69-5.15c-.7-.34-1.41-.64-2.12-.93a18.31,18.31,0,0,1-2-1.08,18.07,18.07,0,0,1-8-10.77,38.37,38.37,0,0,1-.75-4.54c-.22-1.52-.45-3.05-.7-4.57-.5-3-1.06-6.08-1.68-9.1s-1.31-6-2.06-9a30.81,30.81,0,0,1-1.35-9,16.25,16.25,0,0,1,2.66-8.6,23.93,23.93,0,0,1,2.93-3.51c.53-.56,1.08-1.12,1.56-1.73l.74-.9.69-.94a24.89,24.89,0,0,0,4-8.39,22.21,22.21,0,0,0,.34-9.29A24.55,24.55,0,0,0,550,174.11a23.75,23.75,0,0,0-8.57-3.63,32.82,32.82,0,0,0-4.63-.63,22.68,22.68,0,0,1-2.33-.08,17.17,17.17,0,0,1-2.27-.1,17,17,0,0,1-8.31-3.34,16.67,16.67,0,0,1-3.21-3.18c-.47-.59-.86-1.24-1.28-1.88l-1.29-1.92L507.86,144c-1.73-2.55-3.41-5.17-5.18-7.66a17.33,17.33,0,0,1-3.17-8.36,17.69,17.69,0,0,1,1.4-8.82,30.54,30.54,0,0,0,2.24-9.08,22.58,22.58,0,0,0-1.24-9.29,24,24,0,0,0-4.94-8,25.86,25.86,0,0,0-7.44-5.69,20.93,20.93,0,0,0-9.12-2.22,27,27,0,0,0-9.25,1.51c-.75.22-1.47.54-2.2.81s-1.4.56-2.12.77a17,17,0,0,1-13-1.39A42.75,42.75,0,0,1,450,84l-3.79-2.66q-7.61-5.28-15.39-10.3L427,68.54a17.39,17.39,0,0,1-3.58-2.69A16.59,16.59,0,0,1,419,58.23a16.36,16.36,0,0,1-.55-4.41l-.09-2.35c-.09-.78-.12-1.57-.25-2.35a26.23,26.23,0,0,0-2.89-9A21.43,21.43,0,0,0,409,33a26.12,26.12,0,0,0-8.5-4.09,27.56,27.56,0,0,0-4.66-.89,22.29,22.29,0,0,0-13.68,3.28,29.24,29.24,0,0,0-3.81,2.81c-1.21,1-2.3,2.22-3.36,3.19a15.48,15.48,0,0,1-12.28,3.78l-1.09-.18-1.08-.26-2.24-.59c-3-.76-6-1.48-9-2.14q-9.06-2-18.26-3.31a19,19,0,0,1-4.34-1,15.41,15.41,0,0,1-3.89-2,15.83,15.83,0,0,1-5.43-6.81,32.65,32.65,0,0,0-4.81-8.12,26.17,26.17,0,0,0-3.33-3.41,23.82,23.82,0,0,0-4-2.67A23,23,0,0,0,296,8.07a26.65,26.65,0,0,0-9.44,1,22.05,22.05,0,0,0-8.31,4.69,27.71,27.71,0,0,0-5.78,7.53c-.37.7-.74,1.39-1.06,2.13l-.92,2.1a15.6,15.6,0,0,1-2.39,3.66,15.21,15.21,0,0,1-9.43,5.07l-2.3.35-4.58.74c-3,.51-6.08,1.09-9.11,1.71s-6.05,1.3-9.06,2c-1.49.35-3,.77-4.48,1.09a25.31,25.31,0,0,1-4.42.63A16.07,16.07,0,0,1,216.25,39a17.69,17.69,0,0,1-3.62-2.5c-1.06-.94-2.16-2.18-3.42-3.16A24.66,24.66,0,0,0,200.77,29a31.38,31.38,0,0,0-4.69-.93,25.66,25.66,0,0,0-4.8,0,23.78,23.78,0,0,0-20.67,17.5,17.24,17.24,0,0,0-.5,2.35,19.21,19.21,0,0,0-.25,2.38l-.16,2.29c-.08.74-.13,1.49-.27,2.22a19.67,19.67,0,0,1-3.08,8.2,20.07,20.07,0,0,1-6.52,5.85,134.86,134.86,0,0,0-15.73,9.89c-1.25.92-2.48,1.87-3.71,2.83s-2.4,2-3.59,2.84a20.3,20.3,0,0,1-7.94,3.7,16.52,16.52,0,0,1-8.62-.66c-.72-.21-1.38-.51-2.08-.78s-1.47-.62-2.23-.88a23.06,23.06,0,0,0-4.72-1,21.67,21.67,0,0,0-4.83,0,14.67,14.67,0,0,0-2.38.44c-.77.2-1.56.35-2.31.61a25.15,25.15,0,0,0-8.41,4.54,23.5,23.5,0,0,0-8.57,16.69,28.16,28.16,0,0,0,1.12,9.49c.24.76.48,1.55.74,2.29l.43,1,.34,1a18,18,0,0,1,.73,4.3,17.51,17.51,0,0,1-1.77,8.48,17.91,17.91,0,0,1-2.4,3.68c-1,1.25-1.89,2.48-2.81,3.73q-5.5,7.47-10.43,15.36c-.82,1.31-1.62,2.63-2.42,4a33.68,33.68,0,0,1-2.4,3.79,14.54,14.54,0,0,1-11.35,5.46c-.73,0-1.57.06-2.35.09s-1.58.13-2.36.23a28.09,28.09,0,0,0-9.14,2.69,21.87,21.87,0,0,0-7.41,6.06,25.82,25.82,0,0,0-4.35,8.49,23.53,23.53,0,0,0-1,9.5,22.2,22.2,0,0,0,1,4.71,24,24,0,0,0,2,4.37,27.13,27.13,0,0,0,2.69,3.94c.52.6,1,1.23,1.56,1.79l1.6,1.68a15.06,15.06,0,0,1,3.85,7.68,14.7,14.7,0,0,1,.14,4.34,15.26,15.26,0,0,1-.41,2.14c-.2.7-.44,1.42-.64,2.19-1.26,4.46-2.29,8.87-3.21,13.44s-1.68,9.3-2.21,14h0a16.06,16.06,0,0,1-5.54,11.59,15.23,15.23,0,0,1-2.7,1.89c-1,.55-2,.91-3.1,1.47a33.71,33.71,0,0,0-6.1,3.74,23.85,23.85,0,0,0-5,5.23,21.15,21.15,0,0,0-3,6.59,26.71,26.71,0,0,0-.8,7.17,25.54,25.54,0,0,0,1.05,7.11,21.75,21.75,0,0,0,3.17,6.49,23.67,23.67,0,0,0,5,5.14,33.44,33.44,0,0,0,6.13,3.68c1.1.54,2.15.91,3.1,1.45a17,17,0,0,1,2.69,1.91,17.18,17.18,0,0,1,2.22,2.45A18.41,18.41,0,0,1,33,325.77a16.72,16.72,0,0,1,1,3.15c.22,1.08.25,2.21.43,3.4.58,4.65,1.33,9.25,2.25,13.83s2,9.11,3.24,13.65a16.28,16.28,0,0,1-1,12.93A14.58,14.58,0,0,1,37,375.48a14.46,14.46,0,0,1-1.12,1.22c-.42.42-.86.84-1.25,1.28a25,25,0,0,0-6.25,12.73,22.63,22.63,0,0,0-.37,3.57V397a7,7,0,0,0,.11.89,22.59,22.59,0,0,0,2,6.88,25.36,25.36,0,0,0,1.73,3.15,24.05,24.05,0,0,0,14.42,10c.58.15,1.18.21,1.76.32l.89.14.9.05c.6,0,1.22.09,1.79.09a15.88,15.88,0,0,1,1.69,0,18.81,18.81,0,0,1,6.51,1.6,19.13,19.13,0,0,1,9.47,9.22h0A156.29,156.29,0,0,0,79.5,445c1.82,2.5,3.76,5,5.71,7.34a16.87,16.87,0,0,1,2,17,24.79,24.79,0,0,0-2,13.9,20,20,0,0,0,.53,2.32c.11.38.18.77.31,1.15l.41,1.11a24.62,24.62,0,0,0,4.85,8.09A22.14,22.14,0,0,0,99,501.4a23.82,23.82,0,0,0,9.23,1.9,27.18,27.18,0,0,0,9.28-1.58,28.53,28.53,0,0,1,4.35-1.37,21.29,21.29,0,0,1,4.51-.35,19.45,19.45,0,0,1,8.65,2.43,26.08,26.08,0,0,1,3.71,2.65c1.24,1,2.47,1.88,3.72,2.8q7.5,5.52,15.45,10.36c1.32.81,2.67,1.61,4,2.38a15,15,0,0,1,7.76,10.57,32,32,0,0,1,.33,4.58c0,.78.13,1.56.2,2.34a17.94,17.94,0,0,0,.38,2.31,25.73,25.73,0,0,0,3.31,8.76,21.24,21.24,0,0,0,6.51,6.73,26.29,26.29,0,0,0,8.62,3.65,22,22,0,0,0,9.35.15,22.64,22.64,0,0,0,4.48-1.41A26.93,26.93,0,0,0,207,556a31.85,31.85,0,0,0,3.7-2.87l1.7-1.61A16.18,16.18,0,0,1,214,550a15.78,15.78,0,0,1,13-2.79l4.48,1.2c3,.78,6,1.48,9,2.12,6.06,1.27,12.23,2.19,18.34,2.92a18.25,18.25,0,0,1,13.51,11.26,23.84,23.84,0,0,0,4.86,7.93,23,23,0,0,0,12.07,6.72,22.58,22.58,0,0,0,4.64.43,24.88,24.88,0,0,0,9.16-1.53,21.28,21.28,0,0,0,7.73-5.13,25.59,25.59,0,0,0,2.92-3.64,31.09,31.09,0,0,0,2.25-4.08c.35-.7.63-1.42.92-2.13l.5-1,.58-1a17.56,17.56,0,0,1,10.94-7.84c.75-.16,1.51-.29,2.28-.38l2.3-.33c1.53-.22,3.06-.46,4.59-.71q4.59-.78,9.13-1.72c3-.64,6-1.33,9-2.1L360.7,547a17.16,17.16,0,0,1,13.24,2.5l.94.67.89.74,1.68,1.59a32,32,0,0,0,3.62,2.93,25.35,25.35,0,0,0,8.44,3.81,21.74,21.74,0,0,0,9.26.11c6-1.29,11.8-4.68,15.2-9.93a23.35,23.35,0,0,0,3.37-8.62c.16-.76.24-1.53.35-2.3a18,18,0,0,0,.17-2.32,31.12,31.12,0,0,1,.26-4.62,17.38,17.38,0,0,1,7.2-11.43c1.26-.88,2.67-1.54,4-2.33a116.45,116.45,0,0,0,15.37-10.4,39,39,0,0,1,7.72-5.1,25.44,25.44,0,0,1,8.88-2.49,28.21,28.21,0,0,1,9.2.78c3,.7,5.89,2,9,2.15a20.14,20.14,0,0,0,9.06-1.64,22.49,22.49,0,0,0,7.51-5.33,25,25,0,0,0,6.59-16.91,25,25,0,0,1-6.6,16.89,22.6,22.6,0,0,1-7.52,5.32,19.9,19.9,0,0,1-9,1.63c-3.12-.15-6-1.46-9-2.16a28.36,28.36,0,0,0-9.22-.79,25.59,25.59,0,0,0-8.9,2.48,39.4,39.4,0,0,0-7.74,5.1,117.29,117.29,0,0,1-15.37,10.38c-1.34.78-2.75,1.44-4,2.33a17.4,17.4,0,0,0-7.26,11.5,32.75,32.75,0,0,0-.28,4.64c0,.77-.11,1.54-.16,2.31a17.84,17.84,0,0,1-.35,2.29,23.37,23.37,0,0,1-3.37,8.55c-3.37,5.21-9.11,8.58-15.11,9.85a21.48,21.48,0,0,1-9.17-.12,24.92,24.92,0,0,1-8.38-3.79,30.51,30.51,0,0,1-3.59-2.92L376,550.77l-.9-.75-.95-.68a17.45,17.45,0,0,0-13.39-2.55l-4.5,1.16c-3,.76-6,1.45-9,2.09s-6.07,1.19-9.12,1.7c-1.53.25-3.05.5-4.58.71l-2.3.32a22.08,22.08,0,0,0-2.3.39,17.74,17.74,0,0,0-8.16,4.34,18.46,18.46,0,0,0-3,3.6l-.58,1-.51,1c-.3.72-.58,1.44-.92,2.13a32,32,0,0,1-2.24,4,24.43,24.43,0,0,1-2.89,3.59,20.27,20.27,0,0,1-3.53,2.94A19.53,19.53,0,0,1,303,578a24.33,24.33,0,0,1-9.05,1.51,22.81,22.81,0,0,1-4.59-.44,22.66,22.66,0,0,1-11.87-6.65,23.08,23.08,0,0,1-4.75-7.82A18.72,18.72,0,0,0,259,553c-6.17-.76-12.27-1.68-18.32-3-3-.65-6-1.35-9-2.14l-4.49-1.22a16.3,16.3,0,0,0-13.42,2.89,15.35,15.35,0,0,0-1.77,1.55l-1.68,1.58a33.83,33.83,0,0,1-3.63,2.81,25.2,25.2,0,0,1-4,2.21,21.6,21.6,0,0,1-4.36,1.36,21.18,21.18,0,0,1-9.07-.17,25.94,25.94,0,0,1-8.38-3.58,20.51,20.51,0,0,1-6.28-6.53,25.28,25.28,0,0,1-3.2-8.52c-.16-.75-.23-1.51-.35-2.26a21.88,21.88,0,0,1-.2-2.29,33.36,33.36,0,0,0-.32-4.68,15.85,15.85,0,0,0-4.33-8.32,16.21,16.21,0,0,0-3.8-2.83c-1.34-.77-2.65-1.56-4-2.37-5.27-3.22-10.4-6.69-15.36-10.36-1.24-.92-2.48-1.86-3.68-2.79a26,26,0,0,0-3.83-2.75,20.32,20.32,0,0,0-9.06-2.57,20.83,20.83,0,0,0-4.73.36,22.18,22.18,0,0,0-2.3.6c-.76.21-1.48.59-2.21.79a26.12,26.12,0,0,1-8.93,1.49,21.85,21.85,0,0,1-16.14-7.08,23.46,23.46,0,0,1-4.61-7.75l-.39-1.07c-.13-.36-.2-.73-.3-1.09a20.23,20.23,0,0,1-.5-2.21,23.82,23.82,0,0,1,2-13.28,18,18,0,0,0-2.13-18.17c-2-2.43-3.85-4.83-5.67-7.33a154.84,154.84,0,0,1-10-15.57h0A20.38,20.38,0,0,0,53.43,417.1a17.61,17.61,0,0,0-1.78,0c-.6,0-1.13-.07-1.7-.09l-.84-.05-.84-.14c-.55-.1-1.11-.16-1.66-.3a22.12,22.12,0,0,1-11.46-6.78,19.38,19.38,0,0,1-3.7-5.62,20.76,20.76,0,0,1-1.83-6.47,23.15,23.15,0,0,1,2.27-13.14A23.71,23.71,0,0,1,35.76,379c.38-.42.78-.81,1.19-1.21a14.56,14.56,0,0,0,1.24-1.34,16.85,16.85,0,0,0,2-3,17.61,17.61,0,0,0,2.06-6.94,18.31,18.31,0,0,0-.87-7.16c-1.21-4.44-2.28-9-3.17-13.51s-1.63-9.13-2.19-13.71c-.17-1.11-.19-2.31-.43-3.52a19.41,19.41,0,0,0-1.08-3.5,17.94,17.94,0,0,0-1.81-3.19,19.75,19.75,0,0,0-2.45-2.72,19.11,19.11,0,0,0-3-2.12c-1.07-.61-2.23-1-3.21-1.52a31.42,31.42,0,0,1-5.81-3.49,20.86,20.86,0,0,1-7.52-10.77,23.7,23.7,0,0,1-1-6.65,25.33,25.33,0,0,1,.8-6.65,20.22,20.22,0,0,1,7.37-10.88,32.42,32.42,0,0,1,5.77-3.53c1-.5,2.13-.9,3.2-1.51a17.87,17.87,0,0,0,9.17-15v.08A174.76,174.76,0,0,1,39.11,239c.67-3,1.42-6,2.25-8.9.19-.72.44-1.47.66-2.24a17.53,17.53,0,0,0,.46-2.4,16.57,16.57,0,0,0-.15-4.87A17,17,0,0,0,38,212l-1.6-1.67c-.52-.53-1-1.13-1.47-1.7a27.24,27.24,0,0,1-2.51-3.69,23,23,0,0,1-1.82-4.05,20.43,20.43,0,0,1-.92-4.31,23.28,23.28,0,0,1,11.8-22.18A26.7,26.7,0,0,1,50,171.91c.74-.09,1.49-.15,2.24-.21s1.45-.07,2.26-.08a16.46,16.46,0,0,0,12.82-6.17,34.8,34.8,0,0,0,2.56-4c.79-1.31,1.59-2.63,2.4-3.93q4.89-7.8,10.37-15.22c.91-1.24,1.82-2.46,2.75-3.66A19.52,19.52,0,0,0,90,125.17a20.52,20.52,0,0,0-.81-4.79l-.38-1.16-.45-1.1c-.25-.71-.45-1.41-.68-2.11a26.29,26.29,0,0,1-1-8.78,21.55,21.55,0,0,1,7.83-15.3,23.2,23.2,0,0,1,7.76-4.19c.7-.25,1.43-.38,2.15-.58a13.25,13.25,0,0,1,2.16-.4,20.23,20.23,0,0,1,4.4,0,21.24,21.24,0,0,1,4.31.93c.7.23,1.38.5,2.06.8a18.25,18.25,0,0,0,2.26.85,18.58,18.58,0,0,0,9.61.71,22.11,22.11,0,0,0,8.69-4c1.3-1,2.45-2,3.66-2.9s2.41-1.88,3.64-2.78a133.48,133.48,0,0,1,15.56-9.81,22,22,0,0,0,7.11-6.42,21.43,21.43,0,0,0,3.38-9c.15-.79.2-1.58.29-2.37l.15-2.32a16.41,16.41,0,0,1,.24-2.21,14.6,14.6,0,0,1,.46-2.24,22,22,0,0,1,19-16.2,23.42,23.42,0,0,1,4.43,0,29.77,29.77,0,0,1,4.38.87A22.71,22.71,0,0,1,208,34.76c1.19.91,2.13,2,3.37,3.12a20.25,20.25,0,0,0,4,2.74,18.12,18.12,0,0,0,9.4,2,27.82,27.82,0,0,0,4.72-.68c1.56-.35,3-.75,4.51-1.11,3-.72,6-1.38,9-2s6-1.2,9.06-1.71l4.55-.74,2.28-.35a16.14,16.14,0,0,0,2.37-.51,17.07,17.07,0,0,0,10.76-9.22c.18-.36.31-.74.47-1.1l.46-1c.3-.68.65-1.35,1-2a26.33,26.33,0,0,1,5.42-7.08,20.27,20.27,0,0,1,7.66-4.34,23.38,23.38,0,0,1,17.34,1.38,22.27,22.27,0,0,1,6.82,5.65,31.18,31.18,0,0,1,4.6,7.73,17.52,17.52,0,0,0,10.26,9.67,20.69,20.69,0,0,0,4.67,1c6.07.86,12.14,1.94,18.14,3.23q4.52,1,9,2.11l2.23.57,1.17.28,1.19.2a16.89,16.89,0,0,0,13.41-4.18c1.21-1.11,2.17-2.22,3.34-3.18a30.76,30.76,0,0,1,3.61-2.69,20.88,20.88,0,0,1,12.84-3.1,25.4,25.4,0,0,1,4.41.83A22.1,22.1,0,0,1,414,40.77a25,25,0,0,1,2.77,8.53c.13.74.16,1.5.25,2.25l.09,2.27a17.81,17.81,0,0,0,5.4,12.89,18.88,18.88,0,0,0,3.8,2.85L430.24,72q7.78,5,15.38,10.23l3.79,2.64a40.66,40.66,0,0,0,3.88,2.63A18,18,0,0,0,467.14,89c.76-.22,1.5-.53,2.22-.81s1.4-.58,2.13-.8a26.19,26.19,0,0,1,8.9-1.48,21.77,21.77,0,0,1,4.47.55A22.17,22.17,0,0,1,489.1,88a25,25,0,0,1,7.17,5.46A22.94,22.94,0,0,1,501,101.1a21.63,21.63,0,0,1,1.22,8.91,29.76,29.76,0,0,1-2.15,8.81,18.53,18.53,0,0,0-1.43,9.24,18,18,0,0,0,3.34,8.73c1.8,2.53,3.46,5.1,5.2,7.65l10.31,15.33,1.29,1.92c.43.65.84,1.32,1.33,1.94a17.63,17.63,0,0,0,12,6.74,16.67,16.67,0,0,0,2.34.11c.77,0,1.53,0,2.29.06a32.87,32.87,0,0,1,4.53.61,23,23,0,0,1,8.36,3.51,24,24,0,0,1,9.39,15.14,21.63,21.63,0,0,1-.31,9.06,24.3,24.3,0,0,1-3.87,8.23l-.68.93-.72.88c-.48.6-1,1.15-1.53,1.71a23.9,23.9,0,0,0-3,3.59,16.71,16.71,0,0,0-2.71,8.85,31.53,31.53,0,0,0,1.39,9.16q1.14,4.5,2.08,9t1.71,9.08c.25,1.52.48,3,.71,4.56a37.42,37.42,0,0,0,.77,4.58,18.48,18.48,0,0,0,8.17,10.94,16.29,16.29,0,0,0,2.06,1.1c.72.29,1.43.6,2.12.92a27.22,27.22,0,0,1,7.6,5.09,21.06,21.06,0,0,1,5,7.59,24.68,24.68,0,0,1,1.54,9,22.53,22.53,0,0,1-1.83,8.95,22.13,22.13,0,0,1-5.3,7.43,28.61,28.61,0,0,1-7.68,5,19.36,19.36,0,0,0-7.6,5.2,19,19,0,0,0-4.21,8.19,22.35,22.35,0,0,0-.39,2.29l-.33,2.29L551.3,338c-.52,3-1.09,6.06-1.72,9.08s-1.29,6-2,9c-.33,1.51-.8,3-1,4.52a19.19,19.19,0,0,0,3,13.29,18.76,18.76,0,0,0,3,3.53l1.55,1.7c.48.6.93,1.22,1.39,1.84a23.31,23.31,0,0,1-6.29,32.36,23,23,0,0,1-8.71,3.58c-3,.68-6.17.11-9.19.91a19.84,19.84,0,0,0-11.41,7.42c-.93,1.23-1.63,2.62-2.44,3.92q-4.82,7.9-10.16,15.45l-2.71,3.75a35.27,35.27,0,0,0-2.55,3.86,24.17,24.17,0,0,0-1.91,4.21,18,18,0,0,0-.85,4.53c-.79,6.37,4.62,11.55,3.43,17.95,1.2-6.4-4.21-11.59-3.41-17.95a17.12,17.12,0,0,1,.86-4.53,25.15,25.15,0,0,1,1.9-4.2,37.68,37.68,0,0,1,2.56-3.84l2.71-3.75q5.36-7.55,10.18-15.44c.82-1.31,1.51-2.69,2.45-3.92a19.22,19.22,0,0,1,3.17-3.33,19.6,19.6,0,0,1,8.2-4c3-.8,6.15-.23,9.19-.9a23.45,23.45,0,0,0,15.12-36.13c-.46-.61-.91-1.25-1.39-1.85l-1.56-1.72a18.88,18.88,0,0,1-6.06-12.08,19.6,19.6,0,0,1,.09-4.59c.22-1.52.69-3,1-4.5q1.08-4.5,2-9t1.74-9.09l.74-4.56.35-2.29a19.55,19.55,0,0,1,.38-2.27,18.66,18.66,0,0,1,4.17-8.09,19.38,19.38,0,0,1,7.52-5.13,28.4,28.4,0,0,0,7.76-5,22.3,22.3,0,0,0,5.37-7.51,22.83,22.83,0,0,0,1.86-9A24.78,24.78,0,0,0,578.18,284.94Z"/><path class="cls-1" d="M507.77,404.75c6.72-5.77,15-9.45,23.58-11.8,0,0,1,0,1.12-.31s-.56-1-.56-1a80.85,80.85,0,0,1-5.58-12.15,52.67,52.67,0,0,1-2.92-13,47,47,0,0,1,.65-13.23c.26-1.07.47-2.16.76-3.24s.63-2.12.92-3.24c.58-2.22,1.1-4.41,1.58-6.63q1.42-6.66,2.26-13.43c.14-1.12.27-2.25.39-3.38a14.78,14.78,0,0,1,.61-3.14,15,15,0,0,1,2.15-4.26c.3-.4.66-.85,1-1.3,2.88-3.6,5.07-7.6,7.7-11.16a29,29,0,0,1,4.39-4.88,14.51,14.51,0,0,1,5.49-3.37c.37-.1,1.34-.19,1.4-.56s-.86-.73-1.18-.92c-3.84-2.34-6.9-5.76-9.95-9A50.52,50.52,0,0,1,533.73,274a41.32,41.32,0,0,1-4.44-12.49c-.19-1.09-.39-2.18-.49-3.29l-.35-3.38a56,56,0,0,0-1.23-6.78c-.28-1.12-.59-2.22-.94-3.32l-1-3.22c-.3-1.08-.55-2.17-.82-3.25s-.43-2.19-.65-3.29a54.09,54.09,0,0,1-.63-13.33,52.78,52.78,0,0,1,8.7-25c.14-.22.67-.64.58-.89s-.77-.2-1-.27c-8.57-2.3-17-5.74-23.8-11.4a42.66,42.66,0,0,1-8.79-9.83c-.63-.91-1.18-1.87-1.72-2.83l-1.66-2.94c-1.13-2-2.33-3.87-3.62-5.74s-2.64-3.67-4.06-5.43l-2.11-2.6c-.7-.86-1.31-1.79-2-2.68a48.12,48.12,0,0,1-8.11-31.52c.08-1.11.23-2.21.41-3.31l.12-.82c0-.3.07-.6.09-.91a3,3,0,0,0-.5-2,2,2,0,0,0-1.06-.62,4.82,4.82,0,0,0-1-.08,17.05,17.05,0,0,0-1.75.21c-1.1.16-2.2.35-3.3.42l-1.66.15h-1.66c-1.1.07-2.21,0-3.32,0a48.34,48.34,0,0,1-13-2.33,49.45,49.45,0,0,1-17.25-9.78c-1.76-1.44-3.57-2.78-5.43-4.06s-3.77-2.49-5.73-3.62-3.93-2.15-5.78-3.38a47,47,0,0,1-10-8.71,50.11,50.11,0,0,1-7.22-11.15A69.52,69.52,0,0,1,393.07,58s0-.56-.16-.62-.56.31-.56.31a74.92,74.92,0,0,1-12.24,5.73A49.86,49.86,0,0,1,367,66.25a55.22,55.22,0,0,1-13.46-.81c-4.45-.73-8.76-2.23-13.23-3.12s-8.94-1.72-13.46-2.27c-.56-.07-1.14-.14-1.7-.19a3.77,3.77,0,0,1-1-.09,21.85,21.85,0,0,1-3.92-.9,17.37,17.37,0,0,1-3-1.39,12.87,12.87,0,0,1-1.41-.89l-1.38-1c-3.81-2.59-7.84-4.77-11.44-7.46a29.43,29.43,0,0,1-5-4.53,21.67,21.67,0,0,1-3.52-5.71s-.06-.38-.16-.4-.26.35-.26.35a72.76,72.76,0,0,1-9,10.12A51.67,51.67,0,0,1,274,55.74a48.17,48.17,0,0,1-12.77,4.39c-2.21.46-4.48.65-6.72,1s-4.48.73-6.7,1.18-4.44,1-6.64,1.5-4.36,1.25-6.59,1.66a47.88,47.88,0,0,1-13.51.87c-9.07-.63-20.88-16.44-25.51-8.68s16.41,8.12,25.5,8.8a47.42,47.42,0,0,0,13.55-.81c2.24-.4,4.41-1.12,6.61-1.63s4.41-1,6.63-1.47,4.46-.82,6.7-1.15,4.5-.53,6.74-1A49,49,0,0,0,274.18,56a51.63,51.63,0,0,0,11.16-7.79,65.91,65.91,0,0,0,5.28-5.42,4,4,0,0,1,5.64-.46,4.32,4.32,0,0,1,.65.7c.22.28.45.56.68.83a29.32,29.32,0,0,0,5,4.64c3.67,2.74,7.69,4.89,11.37,7.51l1.36,1a15.08,15.08,0,0,0,1.46.94,19.32,19.32,0,0,0,3.23,1.5,17.6,17.6,0,0,0,3.36.85,14,14,0,0,0,1.71.19l1.68.2c4.49.57,9,1.35,13.38,2.32,2.22.49,4.4,1,6.59,1.65,1.09.32,2.19.59,3.31.84l1.67.39,1.68.31A55.54,55.54,0,0,0,367,67.1a50.41,50.41,0,0,0,13.4-2.81c.87-.31,1.74-.63,2.59-1a9.73,9.73,0,0,1,12.57,5.31c.34.8.69,1.59,1.06,2.37A51,51,0,0,0,404,82.4a47.52,47.52,0,0,0,10.21,8.93c1.88,1.27,3.9,2.33,5.82,3.43s3.81,2.32,5.64,3.59,3.63,2.6,5.33,4a50.71,50.71,0,0,0,17.62,10A49.2,49.2,0,0,0,462,114.82c1.13,0,2.27.09,3.41,0h1.7l1.7-.15c1.13-.07,2.25-.26,3.37-.42a13.81,13.81,0,0,1,1.59-.19c.5,0,.93.07,1,.26a1.75,1.75,0,0,1,.2,1.16,2.87,2.87,0,0,1-.07.77l-.13.84c-.18,1.12-.34,2.24-.43,3.37a53.41,53.41,0,0,0-.17,6.81,49.7,49.7,0,0,0,8.43,25.59c.67.92,1.3,1.88,2,2.76l2.12,2.63q2.1,2.59,4,5.36c1.26,1.83,2.44,3.72,3.55,5.65l1.64,2.93a32.84,32.84,0,0,0,1.77,2.92,44.14,44.14,0,0,0,9.06,10.17c6.76,5.64,20.24,3.36,23.33,11.46s-7.79,16-8.45,24.85a55.78,55.78,0,0,0,.62,13.72c.22,1.13.41,2.26.65,3.38s.53,2.23.83,3.33l1,3.28c.33,1.07.64,2.14.9,3.22a52.6,52.6,0,0,1,1.18,6.57l.35,3.38c.1,1.14.3,2.28.5,3.41a42.84,42.84,0,0,0,4.61,13,52.67,52.67,0,0,0,8.12,11.1c2.81,3,9.51,4.25,9,8.31-.22,1.87-3.28,1.85-4.69,3.08a31.12,31.12,0,0,0-4.65,5.15c-2.73,3.7-4.9,7.67-7.67,11.11-.35.43-.7.86-1.07,1.36a15.83,15.83,0,0,0-2.41,4.76,16.74,16.74,0,0,0-.7,3.49c-.11,1.12-.23,2.23-.38,3.35-.55,4.45-1.3,8.88-2.25,13.26-.47,2.19-1,4.39-1.55,6.54-.28,1.06-.63,2.17-.94,3.26s-.52,2.24-.78,3.35a48.67,48.67,0,0,0-.69,13.73,54.25,54.25,0,0,0,3,13.39v.12a12.66,12.66,0,0,1-6.43,15.65,53,53,0,0,0-11.66,7.5,50.44,50.44,0,0,0-9.15,10.2q-.93,1.44-1.83,2.91l-1.64,3a55.59,55.59,0,0,1-3.4,5.72c-1.22,1.85-2.54,3.64-3.94,5.37s-2.91,3.5-4.18,5.38a46.5,46.5,0,0,0-6,12.33,50.62,50.62,0,0,0-2.19,13.54,60.15,60.15,0,0,0,.21,6.85c.07,1.14.24,2.26.36,3.4a7.5,7.5,0,0,1,.09,1.49,2.35,2.35,0,0,1-.09.53.42.42,0,0,1-.11.15,2.7,2.7,0,0,1-1.13.07,11.86,11.86,0,0,1-1.62-.19c-1.12-.15-2.24-.33-3.39-.4a49.39,49.39,0,0,0-6.88-.12,52.06,52.06,0,0,0-6.82.84,54.31,54.31,0,0,0-6.65,1.78A49.35,49.35,0,0,0,436,482.42c-1.9,1.32-3.62,2.69-5.46,4S426.9,489,425,490.25s-3.74,2.46-5.64,3.65-3.85,2.31-5.75,3.62a49.23,49.23,0,0,0-10.15,9.23,55.27,55.27,0,0,0-9.37,16.77,4.94,4.94,0,0,1-6.32,3,6,6,0,0,1-.58-.26l-.12-.06a33.58,33.58,0,0,0-7.36-2.48c-5-1.12-10-1.52-14.75-2.9h-.12a18.63,18.63,0,0,0-9.8,1.1q-8.32,2.3-16.84,3.83c-2.85.52-5.66.93-8.57,1.36-1.46.18-2.9.52-4.35.82a31.37,31.37,0,0,0-4.25,1.25,49.91,49.91,0,0,0-15.42,8.57,71.67,71.67,0,0,0-6.44,6c-.36.38-.71.77-1,1.16a4.16,4.16,0,0,1-5.89.26,3.71,3.71,0,0,1-.5-.55v-.05a27.25,27.25,0,0,0-5.07-4.88c-3.73-2.8-7.82-4.88-11.6-7.28-.94-.6-1.87-1.23-2.76-1.88a12,12,0,0,0-3.23-1.74,27.65,27.65,0,0,0-6.93-1.19c-1.13-.1-2.25-.2-3.32-.38s-2.21-.45-3.33-.64c-2.26-.41-4.51-.72-6.71-1.14-1.1-.21-2.19-.44-3.26-.73l-3.28-.92c-2.22-.6-4.47-1.08-6.74-1.47a57,57,0,0,0-13.8-.7,51.77,51.77,0,0,0-13.53,2.88,50.56,50.56,0,0,0-4.92,2.06,5.55,5.55,0,0,1-7.38-2.64,5.44,5.44,0,0,1-.32-.88,44.5,44.5,0,0,0-5.33-12.1A41.28,41.28,0,0,0,174,496.59c-1.64-.83-3.19-1.58-4.72-2.45s-3-1.8-4.48-2.79-2.86-2.05-4.23-3.17-2.83-2.25-4.3-3.28a60.63,60.63,0,0,0-19.4-9.53,46.33,46.33,0,0,0-10.79-1.51,45.07,45.07,0,0,0-5.45.21c-.9.06-1.8.19-2.7.33l-1.34.21a6.77,6.77,0,0,1-1.19.13,1.23,1.23,0,0,1-.75-.15c-.09,0-.17-.21-.21-.55a15.8,15.8,0,0,1,.26-2.46c.13-.9.27-1.8.33-2.7s.18-1.81.18-2.72a46.52,46.52,0,0,0-.82-10.85,51.91,51.91,0,0,0-8.68-19.79c-1-1.48-2.15-2.95-3.27-4.31s-2.16-2.8-3.17-4.25a82.6,82.6,0,0,1-5.5-9,43.19,43.19,0,0,0-14.4-17.82c-6-4.3-17-1.27-20.4-7.78-1.47-2.77,5.89-11.08,5.89-11.08a32.1,32.1,0,0,0,3.7-13.35,31.56,31.56,0,0,0-.41-7c-.38-2.32-1.11-4.51-1.67-6.69q-1.78-6.57-3.14-13.25c-.92-4.44-1.69-8.92-2.33-13.41-.34-2.25-.55-4.49-1-6.8a32.18,32.18,0,0,0-2.11-6.63,34.25,34.25,0,0,0-3.49-6,47.08,47.08,0,0,0-4.57-5.21,70.39,70.39,0,0,0-8.8-7.07,1.71,1.71,0,0,1-.48-2.37,1.83,1.83,0,0,1,.48-.48h0c.45-.29,1-.57,1.46-.9s.92-.71,1.38-1.06a55.16,55.16,0,0,0,5.16-4.51,42.06,42.06,0,0,0,4.51-5.19,34.84,34.84,0,0,0,3.58-5.88,37.51,37.51,0,0,0,3.62-13.21,118.36,118.36,0,0,1,1.9-13.38,120.8,120.8,0,0,1,3.44-13.07,41.27,41.27,0,0,0,1.77-13.57,43.52,43.52,0,0,0-.84-6.82,43.27,43.27,0,0,0-2-6.57,41.61,41.61,0,0,0-3-6.15c-.57-1-1.25-1.92-1.89-2.88a21.74,21.74,0,0,1-1.7-2.72s-.1-.46,0-.56c3-3.27,8.69-1.57,12.72-3.33a41.27,41.27,0,0,0,11.39-7.38A40.6,40.6,0,0,0,91,175.15c.27-.5.56-1,.81-1.49l.72-1.54c.47-1,1-2,1.51-3a58.64,58.64,0,0,1,3.54-5.69c1.27-1.85,2.68-3.56,4.11-5.31.7-.89,1.41-1.77,2.06-2.7l1-1.37.94-1.41a54,54,0,0,0,6.07-12.1,45.52,45.52,0,0,0,2.62-13.27c0-1.13.09-2.26,0-3.39l-.06-1.69-.15-1.69c-.07-1.13-.26-2.25-.42-3.37-.07-.56-.2-1.12-.26-1.65a2,2,0,0,1,.26-1.42,1.69,1.69,0,0,1,1.37-.38,13.58,13.58,0,0,1,1.64.2c1.12.16,2.24.32,3.37.39a47.8,47.8,0,0,0,6.77.09,49.39,49.39,0,0,0,19.47-5.27,48.68,48.68,0,0,0,5.79-3.5c.94-.63,1.81-1.34,2.7-2s1.79-1.36,2.69-2q2.72-2,5.49-3.91t5.64-3.7c1.9-1.2,3.83-2.35,5.72-3.58a62.06,62.06,0,0,0,10.66-8.24,30.36,30.36,0,0,0,7-11.4,86.63,86.63,0,0,0,3.42-13,89.26,89.26,0,0,1-3.47,13A30.23,30.23,0,0,1,185,82a61.87,61.87,0,0,1-10.68,8.18c-1.89,1.22-3.82,2.36-5.74,3.55s-3.79,2.42-5.65,3.68-3.71,2.56-5.52,3.89l-2.71,2c-.89.68-1.76,1.4-2.7,2a46.67,46.67,0,0,1-5.76,3.45,48.7,48.7,0,0,1-26,5c-1.12-.07-2.23-.24-3.33-.4-.55-.07-1.12-.19-1.7-.21a2.1,2.1,0,0,0-1.76.53,2.42,2.42,0,0,0-.38,1.79c.07.59.19,1.13.25,1.69.16,1.1.35,2.21.41,3.32l.14,1.68,0,1.67c0,1.12,0,2.24,0,3.36a45,45,0,0,1-2.65,13.09,53.17,53.17,0,0,1-6.06,11.93l-.93,1.39-1,1.36c-.65.91-1.35,1.78-2,2.66-1.42,1.72-2.88,3.47-4.17,5.33a60.1,60.1,0,0,0-3.6,5.75c-.54,1-1.08,2-1.54,3l-.72,1.52c-.25.5-.54,1-.81,1.46a41.07,41.07,0,0,1-19.49,17.56c-4.09,1.76-8.43,3.31-12.88,3.25-.11,0-.36,0-.44,0s0,.39,0,.39v1.4a25.27,25.27,0,0,0,1.82,2.94c.62.93,1.28,1.83,1.83,2.81a39.53,39.53,0,0,1,3,6,40,40,0,0,1,1.9,6.41,43.92,43.92,0,0,1,.81,6.65,40.18,40.18,0,0,1-1.76,13.21,122.82,122.82,0,0,0-3.5,13.17,120.56,120.56,0,0,0-2,13.48,36.63,36.63,0,0,1-3.54,12.81,34.8,34.8,0,0,1-3.48,5.69,40.27,40.27,0,0,1-4.4,5,50.31,50.31,0,0,1-5.06,4.4c-.44.33-.9.72-1.32,1s-.93.56-1.43.87A7.28,7.28,0,0,0,39,293.06a4.33,4.33,0,0,0-.95,1.73c0,.11-.15.33-.11.44s.37.25.37.25A76,76,0,0,1,49,303.82a46.06,46.06,0,0,1,4.41,5.06,34.3,34.3,0,0,1,3.34,5.78,31.73,31.73,0,0,1,2,6.36c.4,2.17.62,4.47,1,6.73.63,4.52,1.4,9,2.31,13.5s2,8.93,3.12,13.34c.58,2.24,1.29,4.38,1.63,6.56a30.25,30.25,0,0,1,.38,6.65c-.2,9.08-6,16.67-10,24.78,0,0-.65.79-.51,1s1.12.09,1.12.09A41.47,41.47,0,0,1,92.3,418.58v.05a85.2,85.2,0,0,0,5.6,9.25c1,1.48,2.1,2.93,3.22,4.34s2.19,2.77,3.2,4.23a50.15,50.15,0,0,1,8.39,19.15,45.22,45.22,0,0,1,.79,10.45c0,.88-.11,1.75-.18,2.62s-.2,1.75-.32,2.62a15.21,15.21,0,0,0-.28,2.85,2.38,2.38,0,0,0,.9,1.8,3,3,0,0,0,1.79.49,8.16,8.16,0,0,0,1.47-.16l1.31-.19c.86-.14,1.73-.27,2.61-.33a48.22,48.22,0,0,1,5.24-.2A44.44,44.44,0,0,1,136.42,477a58.46,58.46,0,0,1,18.82,9.28c1.45,1,2.83,2.09,4.21,3.21s2.85,2.24,4.34,3.26a51.56,51.56,0,0,0,4.61,2.87c1.61.87,3.23,1.71,4.78,2.49a39.3,39.3,0,0,1,15.49,13.72,47.73,47.73,0,0,1,6.75,19.73s-.14,1.3.2,1.45,1.21-.81,1.21-.81a51.53,51.53,0,0,1,25-8.82,55.38,55.38,0,0,1,13.36.68c2.21.39,4.4.86,6.57,1.45l3.28.92c1.13.3,2.26.55,3.39.76,2.26.43,4.52.75,6.73,1.15,1.12.19,2.15.44,3.36.65s2.32.29,3.45.39a26.81,26.81,0,0,1,6.47,1.1,10.24,10.24,0,0,1,2.74,1.48c.93.69,1.89,1.34,2.86,2,3.89,2.47,7.93,4.53,11.47,7.21a25.12,25.12,0,0,1,4.73,4.54,22.35,22.35,0,0,1,3.19,5.65s.19,1.54.61,1.61,1-1.36,1-1.36c1.75-2.28,3.57-4.5,5.52-6.59a66.54,66.54,0,0,1,6.25-5.85A48.45,48.45,0,0,1,321.65,531c1.33-.48,2.72-.82,4.09-1.19a31,31,0,0,1,4.19-.79c2.83-.42,5.76-.84,8.61-1.36q8.61-1.53,17-3.86h.11a16.69,16.69,0,0,1,8.79-1c4.95,1.43,10,1.84,14.78,2.92a30.82,30.82,0,0,1,6.92,2.33A20.48,20.48,0,0,1,392,532.2s.82,1.44,1.26,1.33.44-1.77.44-1.77c2.14-8.61,5.65-17,11.32-23.76a47.25,47.25,0,0,1,9.75-8.87c1.8-1.26,3.74-2.37,5.67-3.58s3.81-2.43,5.69-3.69,3.73-2.55,5.56-3.87,3.64-2.74,5.43-4a47.68,47.68,0,0,1,11.74-6,51.9,51.9,0,0,1,6.39-1.72,48.18,48.18,0,0,1,6.56-.81,46.92,46.92,0,0,1,6.6.11c1.1.07,2.2.24,3.3.39.57.07,1.14.14,1.74.19a3.88,3.88,0,0,0,2.18-.3,2.21,2.21,0,0,0,1-1.11,3.85,3.85,0,0,0,.23-1.12,11.61,11.61,0,0,0-.11-1.86c-.11-1.11-.28-2.21-.35-3.31a56.52,56.52,0,0,1-.21-6.64,48.64,48.64,0,0,1,2.09-13A44.64,44.64,0,0,1,484,437a31.32,31.32,0,0,1,2-2.66c.74-.85,1.4-1.72,2.13-2.61a62.78,62.78,0,0,0,4-5.51,66.86,66.86,0,0,0,3.49-5.88l1.61-2.92c.57-.95,1.16-1.88,1.76-2.81A49,49,0,0,1,507.77,404.75Z"/><path class="cls-2" d="M348.42,365.14c0,8.12-7.74,12.33-15.19,8.49-13-6.66-26.05-13.36-38.69-20.51a10.09,10.09,0,0,0-11.24,0C271,360,258.47,366.3,246.06,372.9c-4.05,2.17-8.09,3.62-12.25.55s-4.57-7.25-3.61-12.2c2.58-14.57,4.8-29.27,7.53-43.83a6.65,6.65,0,0,0-2.24-6.86c-10.76-10.32-21.34-20.79-32-31.13-3.34-3.23-5.71-6.57-4.16-11.58s5.93-6.42,10.67-7.09c14.32-2,28.63-4.15,43-6.06a8.29,8.29,0,0,0,7.09-5.33c6.27-13.21,12.89-26.23,19.24-39.4,1.85-4.21,4.74-7.38,9.59-7.38s7.74,3.32,9.73,7.62c6.23,12.89,12.89,25.79,19,38.91a8.69,8.69,0,0,0,7.4,5.76c14.15,1.88,28.37,4,42.42,6,4.69.65,9,1.53,10.91,6.76s-1,8.94-4.57,12.43c-10.55,10.32-21,20.63-31.51,30.79a6,6,0,0,0-2.2,6.34c2.84,15.17,5.16,30.38,7.74,45.57A17.8,17.8,0,0,1,348.42,365.14Z"/><path class="cls-3" d="M103.83,222.2c-6.89,20.35-16.27,57.55-8.35,102,12.69,71.24,65.63,138.14,141,161.39,62.44,19.26,116.6,1.23,136.34-6.49"/><path class="cls-3" d="M476.82,375.21c6.89-20.35,16.26-57.55,8.34-102C472.48,202,419.54,135,344.18,111.79c-62.45-19.26-116.6-1.23-136.34,6.5"/></g></g></g></svg>