<svg xmlns="http://www.w3.org/2000/svg" viewBox="0 0 587.72 587.79"><defs><style>.cls-1,.cls-2,.cls-3{stroke:#000;stroke-miterlimit:10;}.cls-1{stroke-width:16px;}.cls-2,.cls-3{fill:none;}.cls-2{stroke-width:8px;}.cls-3{stroke-linecap:round;stroke-width:19px;}</style></defs><title>CoinIcone</title><g id="Camada_2" data-name="Camada 2"><g id="Camada_1-2" data-name="Camada 1"><path class="cls-1" d="M578.17,284.94a21.32,21.32,0,0,0-5.09-7.7,27.15,27.15,0,0,0-7.69-5.15c-.7-.34-1.41-.64-2.12-.93a19.58,19.58,0,0,1-2-1.08,18.21,18.21,0,0,1-3.56-2.87,18,18,0,0,1-4.44-7.9,37.38,37.38,0,0,1-.75-4.54c-.22-1.52-.45-3.05-.7-4.57q-.75-4.57-1.68-9.1t-2.06-9a31.11,31.11,0,0,1-1.35-9,16.31,16.31,0,0,1,2.66-8.6,23.82,23.82,0,0,1,2.93-3.51c.53-.56,1.08-1.12,1.56-1.73l.74-.9.69-.94a24.84,24.84,0,0,0,4-8.39,22.21,22.21,0,0,0,.34-9.29A24.55,24.55,0,0,0,550,174.11a23.65,23.65,0,0,0-8.57-3.63,31.42,31.42,0,0,0-4.63-.63c-.77,0-1.56,0-2.33-.08a19.06,19.06,0,0,1-2.27-.1,17,17,0,0,1-8.31-3.34,16.67,16.67,0,0,1-3.21-3.18c-.47-.59-.86-1.24-1.28-1.88l-1.29-1.92L507.85,144c-1.73-2.55-3.41-5.17-5.18-7.66a17.47,17.47,0,0,1-3.17-8.36,17.71,17.71,0,0,1,1.4-8.82,30.54,30.54,0,0,0,2.24-9.08,22.58,22.58,0,0,0-1.24-9.29,23.82,23.82,0,0,0-4.94-8,25.73,25.73,0,0,0-7.44-5.69,20.81,20.81,0,0,0-9.12-2.22,26.91,26.91,0,0,0-9.25,1.51c-.75.22-1.47.54-2.2.81s-1.4.56-2.12.77a17,17,0,0,1-13-1.39A42.57,42.57,0,0,1,450,84l-3.79-2.66q-7.61-5.28-15.39-10.3L427,68.54a17.57,17.57,0,0,1-3.58-2.69,16.73,16.73,0,0,1-4.44-7.62,16.36,16.36,0,0,1-.55-4.41l-.09-2.35c-.09-.78-.12-1.57-.25-2.35a26.07,26.07,0,0,0-2.89-9A21.23,21.23,0,0,0,409,33a26,26,0,0,0-8.5-4.09,27.19,27.19,0,0,0-4.66-.89,22.26,22.26,0,0,0-13.68,3.28,29,29,0,0,0-3.81,2.81c-1.21,1-2.3,2.22-3.36,3.19a15.5,15.5,0,0,1-12.28,3.78l-1.09-.18-1.08-.26-2.24-.59q-4.5-1.15-9-2.14-9.06-2-18.26-3.31a19.15,19.15,0,0,1-4.34-1,15.67,15.67,0,0,1-3.89-2,15.9,15.9,0,0,1-5.43-6.81,32.76,32.76,0,0,0-4.81-8.12,25.54,25.54,0,0,0-3.33-3.41,23.18,23.18,0,0,0-4-2.67A22.75,22.75,0,0,0,296,8.07a26.47,26.47,0,0,0-9.44,1,22.13,22.13,0,0,0-8.31,4.69,27.77,27.77,0,0,0-5.78,7.53c-.37.7-.74,1.39-1.06,2.13s-.63,1.44-.92,2.1a15.6,15.6,0,0,1-2.39,3.66,15.29,15.29,0,0,1-9.43,5.07l-2.3.35-4.58.74c-3,.51-6.08,1.09-9.11,1.71s-6.05,1.3-9.06,2c-1.49.35-3,.77-4.48,1.09a25.58,25.58,0,0,1-4.42.63,16.19,16.19,0,0,1-8.48-1.76,17.84,17.84,0,0,1-3.62-2.5c-1.06-.94-2.16-2.18-3.42-3.16A24.49,24.49,0,0,0,200.76,29a29.94,29.94,0,0,0-4.69-.93,24.83,24.83,0,0,0-4.8,0A23.77,23.77,0,0,0,170.6,45.57a16.92,16.92,0,0,0-.5,2.35,19,19,0,0,0-.25,2.38l-.16,2.29c-.08.74-.13,1.49-.27,2.22a19.58,19.58,0,0,1-3.08,8.2,20.14,20.14,0,0,1-6.52,5.85,133.72,133.72,0,0,0-15.73,9.89q-1.87,1.38-3.71,2.83c-1.22,1-2.4,2-3.59,2.84a20.32,20.32,0,0,1-7.94,3.7,16.67,16.67,0,0,1-8.62-.66c-.72-.21-1.38-.51-2.08-.78s-1.47-.62-2.23-.88a22.57,22.57,0,0,0-4.72-1,21.67,21.67,0,0,0-4.83,0,14.67,14.67,0,0,0-2.38.44c-.77.2-1.56.35-2.31.61a25.07,25.07,0,0,0-8.41,4.54,23.5,23.5,0,0,0-8.57,16.69,28.13,28.13,0,0,0,1.12,9.49c.24.76.48,1.55.74,2.29l.43,1,.34,1a17.92,17.92,0,0,1,.73,4.3,17.39,17.39,0,0,1-1.77,8.48,17.9,17.9,0,0,1-2.4,3.68c-1,1.25-1.89,2.48-2.81,3.73q-5.51,7.47-10.43,15.36c-.82,1.31-1.62,2.63-2.42,4a33.84,33.84,0,0,1-2.4,3.79,14.55,14.55,0,0,1-11.35,5.46c-.73,0-1.57.06-2.35.09s-1.58.13-2.36.23a28.13,28.13,0,0,0-9.14,2.69,21.76,21.76,0,0,0-7.41,6.06,25.82,25.82,0,0,0-4.35,8.49,23.64,23.64,0,0,0-1,9.5,22.35,22.35,0,0,0,1,4.71,24.54,24.54,0,0,0,2,4.37,28.82,28.82,0,0,0,2.69,3.94c.52.6,1,1.23,1.56,1.79l1.6,1.68a15,15,0,0,1,3.85,7.68,14.69,14.69,0,0,1,.14,4.34,15.54,15.54,0,0,1-.41,2.14c-.2.7-.44,1.42-.64,2.19-1.26,4.46-2.29,8.87-3.21,13.44S34.77,252.3,34.24,257V257a16.06,16.06,0,0,1-5.54,11.59,15.23,15.23,0,0,1-2.7,1.89c-1,.55-2,.91-3.1,1.47a33.49,33.49,0,0,0-6.1,3.74,23.74,23.74,0,0,0-5,5.23,21.12,21.12,0,0,0-3,6.59A26.51,26.51,0,0,0,8,294.68a25.71,25.71,0,0,0,1.05,7.11,22,22,0,0,0,3.17,6.49,24,24,0,0,0,5,5.14,34.12,34.12,0,0,0,6.13,3.68c1.1.54,2.15.91,3.1,1.45a16,16,0,0,1,2.69,1.91,16.66,16.66,0,0,1,2.22,2.45A17.58,17.58,0,0,1,33,325.77a16.17,16.17,0,0,1,1,3.15c.22,1.08.25,2.21.43,3.4.58,4.65,1.33,9.25,2.25,13.83s2,9.11,3.24,13.65a16.27,16.27,0,0,1-1,12.93A14.65,14.65,0,0,1,37,375.48a16.19,16.19,0,0,1-1.12,1.22c-.42.42-.86.84-1.25,1.28a25,25,0,0,0-6.25,12.73,22.39,22.39,0,0,0-.37,3.57c0,.6,0,1.2,0,1.8l0,.9c0,.29.07.59.11.89a22.62,22.62,0,0,0,2,6.88,26.73,26.73,0,0,0,1.73,3.15,25.26,25.26,0,0,0,2.22,2.82,23.54,23.54,0,0,0,12.2,7.16c.58.15,1.18.21,1.76.32l.89.14.9.05c.6,0,1.22.09,1.79.09a15.77,15.77,0,0,1,1.69,0,18.54,18.54,0,0,1,6.51,1.6,19.13,19.13,0,0,1,9.47,9.22v0A157,157,0,0,0,79.49,445c1.82,2.5,3.76,5,5.71,7.34a16.86,16.86,0,0,1,2,17,24.79,24.79,0,0,0-2,13.9,22.31,22.31,0,0,0,.53,2.32c.11.38.18.77.31,1.15l.41,1.11a24.65,24.65,0,0,0,4.85,8.09A22.23,22.23,0,0,0,99,501.4a23.86,23.86,0,0,0,9.23,1.9,27.43,27.43,0,0,0,9.28-1.58,28.4,28.4,0,0,1,4.35-1.37,20.7,20.7,0,0,1,4.51-.35,19.36,19.36,0,0,1,8.65,2.43,25.41,25.41,0,0,1,3.71,2.65c1.24,1,2.47,1.88,3.72,2.8q7.5,5.52,15.45,10.36c1.32.81,2.67,1.61,4,2.38a15,15,0,0,1,7.76,10.57,32.48,32.48,0,0,1,.33,4.58c0,.78.13,1.56.2,2.34s.21,1.55.38,2.31a25.8,25.8,0,0,0,3.31,8.76,21.35,21.35,0,0,0,6.51,6.73,26.59,26.59,0,0,0,8.62,3.65,22.16,22.16,0,0,0,9.35.15,23.31,23.31,0,0,0,4.48-1.41,27.32,27.32,0,0,0,4.1-2.28,33.24,33.24,0,0,0,3.7-2.87l1.7-1.61A15.38,15.38,0,0,1,214,550,15.74,15.74,0,0,1,227,547.21l4.48,1.2c3,.78,6,1.48,9,2.12,6.06,1.27,12.23,2.19,18.34,2.92a18.23,18.23,0,0,1,13.51,11.26,23.94,23.94,0,0,0,4.86,7.93,23,23,0,0,0,12.07,6.72,23.37,23.37,0,0,0,4.64.43,25.06,25.06,0,0,0,9.16-1.53,21.28,21.28,0,0,0,7.73-5.13,25.59,25.59,0,0,0,2.92-3.64,31.09,31.09,0,0,0,2.25-4.08c.35-.7.63-1.42.92-2.13l.5-1,.58-1a17.55,17.55,0,0,1,10.94-7.84,21.68,21.68,0,0,1,2.28-.38l2.3-.33c1.53-.22,3.06-.46,4.59-.71q4.59-.78,9.13-1.72c3-.64,6-1.33,9-2.1l4.49-1.16a17.14,17.14,0,0,1,13.24,2.5l.94.67.89.74,1.68,1.59a32.87,32.87,0,0,0,3.62,2.93,25.46,25.46,0,0,0,8.44,3.81,21.9,21.9,0,0,0,9.26.11c6-1.29,11.8-4.68,15.2-9.93a23.35,23.35,0,0,0,3.37-8.62c.16-.76.24-1.53.35-2.3s.16-1.54.17-2.32a32.29,32.29,0,0,1,.26-4.62,17.37,17.37,0,0,1,7.2-11.43c1.26-.88,2.67-1.54,4-2.33a118.11,118.11,0,0,0,15.37-10.4,38.39,38.39,0,0,1,7.72-5.1,25.23,25.23,0,0,1,8.88-2.49,28,28,0,0,1,9.2.78c3,.7,5.89,2,9,2.15a20.14,20.14,0,0,0,9.06-1.64,22.49,22.49,0,0,0,7.51-5.33,25,25,0,0,0,6.59-16.91,25,25,0,0,1-6.6,16.89,22.6,22.6,0,0,1-7.52,5.32,20,20,0,0,1-9,1.63c-3.12-.15-6-1.46-9-2.16a28.07,28.07,0,0,0-9.22-.79,25.38,25.38,0,0,0-8.9,2.48,39.11,39.11,0,0,0-7.74,5.1,118,118,0,0,1-15.37,10.38c-1.34.78-2.75,1.44-4,2.33a17.38,17.38,0,0,0-7.26,11.5,32.75,32.75,0,0,0-.28,4.64c0,.77-.11,1.54-.16,2.31s-.2,1.53-.35,2.29a23.37,23.37,0,0,1-3.37,8.55c-3.37,5.21-9.11,8.58-15.11,9.85a21.64,21.64,0,0,1-9.17-.12,25.12,25.12,0,0,1-8.38-3.79,32.45,32.45,0,0,1-3.59-2.92L376,550.77l-.9-.75-.95-.68a17.43,17.43,0,0,0-13.39-2.55l-4.5,1.16c-3,.76-6,1.45-9.05,2.09s-6.07,1.19-9.12,1.7c-1.53.25-3.05.5-4.58.71l-2.3.32a20.08,20.08,0,0,0-2.3.39,17.74,17.74,0,0,0-8.16,4.34,18,18,0,0,0-3,3.6l-.58,1-.51,1c-.3.72-.58,1.44-.92,2.13a33.18,33.18,0,0,1-2.24,4,25.52,25.52,0,0,1-2.89,3.59,20.27,20.27,0,0,1-3.53,2.94A19.76,19.76,0,0,1,303,578a24.46,24.46,0,0,1-9.05,1.51,23.56,23.56,0,0,1-4.59-.44,23.24,23.24,0,0,1-4.38-1.39,22.7,22.7,0,0,1-7.49-5.26,23.34,23.34,0,0,1-4.75-7.82A18.67,18.67,0,0,0,258.94,553c-6.17-.76-12.27-1.68-18.32-3-3-.65-6-1.35-9-2.14l-4.49-1.22a16.25,16.25,0,0,0-13.42,2.89,15.35,15.35,0,0,0-1.77,1.55l-1.68,1.58a33.83,33.83,0,0,1-3.63,2.81,25.75,25.75,0,0,1-4,2.21,22.26,22.26,0,0,1-4.36,1.36,21.34,21.34,0,0,1-9.07-.17,26,26,0,0,1-8.38-3.58,20.61,20.61,0,0,1-6.28-6.53,25.33,25.33,0,0,1-3.2-8.52c-.16-.75-.23-1.51-.35-2.26s-.16-1.53-.2-2.29a32.58,32.58,0,0,0-.32-4.68,15.75,15.75,0,0,0-4.33-8.32,15.94,15.94,0,0,0-3.8-2.83c-1.34-.77-2.65-1.56-4-2.37-5.27-3.22-10.4-6.69-15.36-10.36-1.24-.92-2.48-1.86-3.68-2.79a26.17,26.17,0,0,0-3.83-2.75,20.19,20.19,0,0,0-9.06-2.57,20.79,20.79,0,0,0-4.73.36,22.18,22.18,0,0,0-2.3.6c-.76.21-1.48.59-2.21.79a26.37,26.37,0,0,1-8.93,1.49,21.86,21.86,0,0,1-16.14-7.08,23.56,23.56,0,0,1-4.61-7.75l-.39-1.07c-.13-.36-.2-.73-.3-1.09a21.34,21.34,0,0,1-.5-2.21,23.81,23.81,0,0,1,2-13.28,18,18,0,0,0-2.13-18.17c-2-2.43-3.85-4.83-5.67-7.33a157.6,157.6,0,0,1-10-15.57l0,0a20.46,20.46,0,0,0-10.08-9.87,20.14,20.14,0,0,0-7-1.74,17.69,17.69,0,0,0-1.78,0c-.6,0-1.13-.07-1.7-.09l-.84-.05-.84-.14c-.55-.1-1.11-.16-1.66-.3a22.19,22.19,0,0,1-11.46-6.78,19.76,19.76,0,0,1-3.7-5.62,20.91,20.91,0,0,1-1.83-6.47,23.15,23.15,0,0,1,2.27-13.14A23.74,23.74,0,0,1,35.75,379c.38-.42.78-.81,1.19-1.21s.86-.86,1.24-1.34a17.1,17.1,0,0,0,2-3,17.66,17.66,0,0,0,2.06-6.94,18.2,18.2,0,0,0-.87-7.16c-1.21-4.44-2.28-9-3.17-13.51s-1.63-9.13-2.19-13.71c-.17-1.11-.19-2.31-.43-3.52a18.65,18.65,0,0,0-1.08-3.5,17.94,17.94,0,0,0-1.81-3.19,18.54,18.54,0,0,0-2.45-2.72,17.89,17.89,0,0,0-3-2.12c-1.07-.61-2.23-1-3.21-1.52a32.21,32.21,0,0,1-5.81-3.49A20.93,20.93,0,0,1,10.7,301.3a24,24,0,0,1-1-6.65A25.26,25.26,0,0,1,10.5,288a20.17,20.17,0,0,1,7.37-10.88,31.94,31.94,0,0,1,5.77-3.53c1-.5,2.13-.9,3.2-1.51a17.88,17.88,0,0,0,9.17-15v.08A173.93,173.93,0,0,1,39.1,239c.67-3,1.42-6,2.25-8.9.19-.72.44-1.47.66-2.24a17.83,17.83,0,0,0,.46-2.4,16.56,16.56,0,0,0-.15-4.87A16.91,16.91,0,0,0,38,212l-1.6-1.67c-.52-.53-1-1.13-1.47-1.7a27.88,27.88,0,0,1-2.51-3.69,23.34,23.34,0,0,1-1.82-4.05,20.57,20.57,0,0,1-.92-4.31A23.28,23.28,0,0,1,41.48,174.4,26.64,26.64,0,0,1,50,171.91c.74-.09,1.49-.15,2.24-.21s1.45-.07,2.26-.08a16.47,16.47,0,0,0,4.82-.73,16.3,16.3,0,0,0,8-5.44,34.72,34.72,0,0,0,2.56-4c.79-1.31,1.59-2.63,2.4-3.93q4.89-7.8,10.37-15.22,1.36-1.86,2.75-3.66A19.51,19.51,0,0,0,90,125.17a20.35,20.35,0,0,0-.81-4.79l-.38-1.16-.45-1.1c-.25-.71-.45-1.41-.68-2.11a26.34,26.34,0,0,1-1-8.78,21.55,21.55,0,0,1,7.83-15.3,23.19,23.19,0,0,1,7.76-4.19c.7-.25,1.43-.38,2.15-.58a12.43,12.43,0,0,1,2.16-.4,20.23,20.23,0,0,1,4.4,0,20.45,20.45,0,0,1,4.31.93c.7.23,1.38.5,2.06.8s1.49.63,2.26.85a18.65,18.65,0,0,0,9.61.71,22.29,22.29,0,0,0,8.69-4c1.3-1,2.45-2,3.66-2.9s2.41-1.88,3.64-2.78a132,132,0,0,1,15.56-9.81,21.93,21.93,0,0,0,7.11-6.42,21.44,21.44,0,0,0,3.38-9c.15-.79.2-1.58.29-2.37l.15-2.32a16.24,16.24,0,0,1,.24-2.21A14.67,14.67,0,0,1,172.4,46a21.94,21.94,0,0,1,19-16.2,23.41,23.41,0,0,1,4.43,0,28.29,28.29,0,0,1,4.38.87,22.54,22.54,0,0,1,7.82,4.09c1.19.91,2.13,2,3.37,3.12a20.69,20.69,0,0,0,4,2.74,18.17,18.17,0,0,0,9.4,1.95,28.56,28.56,0,0,0,4.72-.68c1.56-.35,3-.75,4.51-1.11q4.47-1.08,9-2c3-.62,6-1.2,9.06-1.71l4.55-.74,2.28-.35a16.43,16.43,0,0,0,2.37-.51,17.07,17.07,0,0,0,10.76-9.22c.18-.36.31-.74.47-1.1l.46-1c.3-.68.65-1.35,1-2a26.11,26.11,0,0,1,5.42-7.08,20.2,20.2,0,0,1,7.66-4.34,23.35,23.35,0,0,1,17.34,1.38,22.09,22.09,0,0,1,6.82,5.65,31.19,31.19,0,0,1,4.6,7.73,17.55,17.55,0,0,0,10.26,9.67,21.11,21.11,0,0,0,4.67,1c6.07.86,12.14,1.94,18.14,3.23q4.52,1,9,2.11l2.23.57,1.17.28,1.19.2a17.29,17.29,0,0,0,4.82-.08,16.93,16.93,0,0,0,8.59-4.1c1.21-1.11,2.17-2.22,3.34-3.18a29.41,29.41,0,0,1,3.61-2.69,21.4,21.4,0,0,1,8.37-3,20.87,20.87,0,0,1,4.47-.1,24.5,24.5,0,0,1,4.41.83A22.08,22.08,0,0,1,414,40.77a24.71,24.71,0,0,1,2.77,8.53c.13.74.16,1.5.25,2.25l.09,2.27a17.84,17.84,0,0,0,5.4,12.89,19.46,19.46,0,0,0,3.8,2.85L430.23,72q7.78,5,15.38,10.23l3.79,2.64a41.13,41.13,0,0,0,3.88,2.63A18,18,0,0,0,467.13,89c.76-.22,1.5-.53,2.22-.81s1.4-.58,2.13-.8a26,26,0,0,1,8.9-1.48,21,21,0,0,1,4.47.55A21.29,21.29,0,0,1,489.09,88a24.78,24.78,0,0,1,7.17,5.46,22.72,22.72,0,0,1,4.77,7.64,21.56,21.56,0,0,1,1.22,8.91,29.68,29.68,0,0,1-2.15,8.81,18.52,18.52,0,0,0-1.43,9.24,18.13,18.13,0,0,0,3.34,8.73c1.8,2.53,3.46,5.1,5.2,7.65l10.31,15.33,1.29,1.92c.43.65.84,1.32,1.33,1.94a17.69,17.69,0,0,0,12,6.74,18.33,18.33,0,0,0,2.34.11c.77,0,1.53,0,2.29.06a31.22,31.22,0,0,1,4.53.61,22.89,22.89,0,0,1,8.36,3.51,24,24,0,0,1,9.39,15.14,21.63,21.63,0,0,1-.31,9.06,24.37,24.37,0,0,1-3.87,8.23l-.68.93-.72.88c-.48.6-1,1.15-1.53,1.71a23.87,23.87,0,0,0-3,3.59,16.77,16.77,0,0,0-2.71,8.85,31.48,31.48,0,0,0,1.39,9.16q1.14,4.49,2.08,9t1.71,9.08c.25,1.52.48,3,.71,4.56a38.07,38.07,0,0,0,.77,4.58,18.49,18.49,0,0,0,8.17,10.94,17.68,17.68,0,0,0,2.06,1.1c.72.29,1.43.6,2.12.92a26.94,26.94,0,0,1,7.6,5.09,20.86,20.86,0,0,1,5,7.59,24.52,24.52,0,0,1,1.54,9,22.57,22.57,0,0,1-1.83,8.95,22.05,22.05,0,0,1-5.3,7.43,28.51,28.51,0,0,1-7.68,5,19.36,19.36,0,0,0-7.6,5.2,18.93,18.93,0,0,0-4.21,8.19,22.35,22.35,0,0,0-.39,2.29l-.33,2.29-.75,4.56q-.78,4.55-1.72,9.08t-2,9c-.33,1.51-.8,3-1,4.52a19.18,19.18,0,0,0,3,13.29,19.08,19.08,0,0,0,3,3.53l1.55,1.7c.48.6.93,1.22,1.39,1.84a23.31,23.31,0,0,1-15,35.94c-3,.68-6.17.11-9.19.91a19.84,19.84,0,0,0-11.41,7.42c-.93,1.23-1.63,2.62-2.44,3.92q-4.82,7.9-10.16,15.45l-2.71,3.75a35.27,35.27,0,0,0-2.55,3.86,23.84,23.84,0,0,0-1.91,4.21,17.86,17.86,0,0,0-.85,4.53c-.79,6.37,4.62,11.55,3.43,17.95,1.2-6.4-4.21-11.59-3.41-17.95a17.53,17.53,0,0,1,.86-4.53,24.79,24.79,0,0,1,1.9-4.2,36.61,36.61,0,0,1,2.56-3.84l2.71-3.75q5.36-7.55,10.18-15.44c.82-1.31,1.51-2.69,2.45-3.92a18.87,18.87,0,0,1,3.17-3.33,19.44,19.44,0,0,1,8.2-4c3-.8,6.15-.23,9.19-.9a23.44,23.44,0,0,0,15.12-36.13c-.46-.61-.91-1.25-1.39-1.85l-1.56-1.72a19.17,19.17,0,0,1-3-3.5,18.77,18.77,0,0,1-3.06-8.58,19.58,19.58,0,0,1,.09-4.59c.22-1.52.69-3,1-4.5q1.08-4.5,2-9t1.74-9.09l.74-4.56.35-2.29a19.55,19.55,0,0,1,.38-2.27,18.66,18.66,0,0,1,4.17-8.09,19.21,19.21,0,0,1,7.52-5.13,28.82,28.82,0,0,0,7.76-5,22.26,22.26,0,0,0,5.37-7.51,22.87,22.87,0,0,0,1.86-9.05A24.64,24.64,0,0,0,578.17,284.94Z"/><path class="cls-1" d="M507.76,404.75c6.72-5.77,15-9.45,23.58-11.8,0,0,1,0,1.12-.31s-.56-1-.56-1a81.23,81.23,0,0,1-5.58-12.15,52.59,52.59,0,0,1-2.92-13,47.36,47.36,0,0,1,.65-13.23c.26-1.07.47-2.16.76-3.24s.63-2.12.92-3.24c.58-2.22,1.1-4.41,1.58-6.63q1.43-6.66,2.26-13.43c.14-1.12.27-2.25.39-3.38a14.92,14.92,0,0,1,.61-3.14,14.73,14.73,0,0,1,2.15-4.26c.3-.4.66-.85,1-1.3,2.88-3.6,5.07-7.6,7.7-11.16a28.8,28.8,0,0,1,4.39-4.88,14.42,14.42,0,0,1,5.49-3.37c.37-.1,1.34-.19,1.4-.56s-.86-.73-1.18-.92c-3.84-2.34-6.9-5.76-9.95-9A51,51,0,0,1,533.72,274a41.51,41.51,0,0,1-4.44-12.49c-.19-1.09-.39-2.18-.49-3.29l-.35-3.38a55.35,55.35,0,0,0-1.23-6.78c-.28-1.12-.59-2.22-.94-3.32l-1-3.22c-.3-1.08-.55-2.17-.82-3.25s-.43-2.19-.65-3.29a54.63,54.63,0,0,1-.63-13.33,52.82,52.82,0,0,1,8.7-25c.14-.22.67-.64.58-.89s-.77-.2-1-.27c-8.57-2.3-17-5.74-23.8-11.4a42.89,42.89,0,0,1-8.79-9.83c-.63-.91-1.18-1.87-1.72-2.83l-1.66-2.94q-1.69-2.94-3.62-5.74c-1.28-1.86-2.64-3.67-4.06-5.43l-2.11-2.6c-.7-.86-1.31-1.79-2-2.68a48.13,48.13,0,0,1-8.11-31.52c.08-1.11.23-2.21.41-3.31l.12-.82c0-.3.07-.6.09-.91a2.94,2.94,0,0,0-.5-2,2,2,0,0,0-1.06-.62,4.31,4.31,0,0,0-1-.08,14.48,14.48,0,0,0-1.75.21c-1.1.16-2.2.35-3.3.42l-1.66.15-1.66,0c-1.1.07-2.21,0-3.32,0a48.63,48.63,0,0,1-13-2.33,49.51,49.51,0,0,1-17.25-9.78c-1.76-1.44-3.57-2.78-5.43-4.06s-3.77-2.49-5.73-3.62-3.93-2.15-5.78-3.38a47.23,47.23,0,0,1-10-8.71,50.6,50.6,0,0,1-7.22-11.15A70.07,70.07,0,0,1,393.06,58s0-.56-.16-.62-.56.31-.56.31a75.31,75.31,0,0,1-12.24,5.73A49.83,49.83,0,0,1,367,66.25a55.25,55.25,0,0,1-13.46-.81c-4.45-.73-8.76-2.23-13.23-3.12s-8.94-1.72-13.46-2.27c-.56-.07-1.14-.14-1.7-.19-.34,0-.66,0-1-.09a22,22,0,0,1-3.92-.9,17.76,17.76,0,0,1-3-1.39,14.58,14.58,0,0,1-1.41-.89l-1.38-1C310.63,53,306.6,50.82,303,48.13a29.7,29.7,0,0,1-5-4.53,21.67,21.67,0,0,1-3.52-5.71s-.06-.38-.16-.4-.26.35-.26.35a73.27,73.27,0,0,1-9,10.12A52,52,0,0,1,274,55.74a48.53,48.53,0,0,1-12.77,4.39c-2.21.46-4.48.65-6.72,1s-4.48.73-6.7,1.18-4.44,1-6.64,1.5-4.36,1.25-6.59,1.66a48.25,48.25,0,0,1-13.51.87c-9.07-.63-20.88-16.44-25.51-8.68s16.41,8.12,25.5,8.8a47.79,47.79,0,0,0,13.55-.81c2.24-.4,4.41-1.12,6.61-1.63s4.41-1,6.63-1.47,4.46-.82,6.7-1.15,4.5-.53,6.74-1a49,49,0,0,0,12.88-4.37,52.09,52.09,0,0,0,11.16-7.79,67.49,67.49,0,0,0,5.28-5.42,4,4,0,0,1,6.29.24c.22.28.45.56.68.83a29.92,29.92,0,0,0,5,4.64c3.67,2.74,7.69,4.89,11.37,7.51l1.36,1a16.41,16.41,0,0,0,1.46.94A19.39,19.39,0,0,0,320,59.48a18.38,18.38,0,0,0,3.36.85,16.56,16.56,0,0,0,1.71.19l1.68.2c4.49.57,9,1.35,13.38,2.32,2.22.49,4.4,1,6.59,1.65,1.09.32,2.19.59,3.31.84l1.67.39,1.68.31A55.8,55.8,0,0,0,367,67.1a50.8,50.8,0,0,0,13.4-2.81c.87-.31,1.74-.63,2.59-1a9.72,9.72,0,0,1,12.57,5.31c.34.8.69,1.59,1.06,2.37A51.47,51.47,0,0,0,404,82.4a47.52,47.52,0,0,0,10.21,8.93c1.88,1.27,3.9,2.33,5.82,3.43s3.81,2.32,5.64,3.59,3.63,2.6,5.33,4a49.33,49.33,0,0,0,5.4,4.12,48.6,48.6,0,0,0,12.22,5.91A49.81,49.81,0,0,0,462,114.82c1.13,0,2.27.09,3.41,0l1.7,0,1.7-.15c1.13-.07,2.25-.26,3.37-.42a12,12,0,0,1,1.59-.19c.5,0,.93.07,1,.26a1.75,1.75,0,0,1,.2,1.16c0,.26,0,.51-.07.77l-.13.84c-.18,1.12-.34,2.24-.43,3.37a53.36,53.36,0,0,0-.17,6.81,49.73,49.73,0,0,0,8.43,25.59c.67.92,1.3,1.88,2,2.76l2.12,2.63q2.1,2.59,4,5.36c1.26,1.83,2.44,3.72,3.55,5.65l1.64,2.93c.56,1,1.12,2,1.77,2.92a44.35,44.35,0,0,0,9.06,10.17c6.76,5.64,20.24,3.36,23.33,11.46s-7.79,16-8.45,24.85a56.27,56.27,0,0,0,.62,13.72c.22,1.13.41,2.26.65,3.38s.53,2.23.83,3.33l1,3.28c.33,1.07.64,2.14.9,3.22a52.27,52.27,0,0,1,1.18,6.57l.35,3.38c.1,1.14.3,2.28.5,3.41a43.15,43.15,0,0,0,4.61,13,52.86,52.86,0,0,0,8.12,11.1c2.81,3,9.51,4.25,9,8.31-.22,1.87-3.28,1.85-4.69,3.08a31.44,31.44,0,0,0-4.65,5.15c-2.73,3.7-4.9,7.67-7.67,11.11-.35.43-.7.86-1.07,1.36a15.81,15.81,0,0,0-2.41,4.76,17,17,0,0,0-.7,3.49c-.11,1.12-.23,2.23-.38,3.35-.55,4.45-1.3,8.88-2.25,13.26-.47,2.19-1,4.39-1.55,6.54-.28,1.06-.63,2.17-.94,3.26s-.52,2.24-.78,3.35a49,49,0,0,0-.69,13.73,54.26,54.26,0,0,0,3,13.39l0,.12a12.66,12.66,0,0,1-6.43,15.65,52.94,52.94,0,0,0-11.66,7.5,50.44,50.44,0,0,0-9.15,10.2q-.93,1.44-1.83,2.91l-1.64,3c-1,2-2.18,3.87-3.4,5.72s-2.54,3.64-3.94,5.37-2.91,3.5-4.18,5.38a46.44,46.44,0,0,0-6,12.33,50.68,50.68,0,0,0-2.19,13.54,62.62,62.62,0,0,0,.21,6.85c.07,1.14.24,2.26.36,3.4a7.82,7.82,0,0,1,.09,1.49,2.05,2.05,0,0,1-.09.53.43.43,0,0,1-.11.15,2.81,2.81,0,0,1-1.13.07c-.52,0-1.06-.11-1.62-.19-1.12-.15-2.24-.33-3.39-.4a47.9,47.9,0,0,0-6.88-.12,50.41,50.41,0,0,0-6.82.84,53,53,0,0,0-6.65,1.78A49.1,49.1,0,0,0,436,482.42c-1.9,1.32-3.62,2.69-5.46,4s-3.65,2.58-5.51,3.83-3.74,2.46-5.64,3.65-3.85,2.31-5.75,3.62a48.92,48.92,0,0,0-10.15,9.23,55.29,55.29,0,0,0-9.37,16.77,4.94,4.94,0,0,1-6.9,2.73l-.12-.06a32.73,32.73,0,0,0-7.36-2.48c-5-1.12-10-1.52-14.75-2.9l-.06,0h-.06a18.52,18.52,0,0,0-9.8,1.1q-8.32,2.29-16.84,3.83c-2.85.52-5.66.93-8.57,1.36-1.46.18-2.9.52-4.35.82s-2.86.75-4.25,1.25a49.68,49.68,0,0,0-15.42,8.57,69.29,69.29,0,0,0-6.44,6c-.36.38-.71.77-1.05,1.16a4.17,4.17,0,0,1-6.39-.29l0-.05a27.23,27.23,0,0,0-5.07-4.88c-3.73-2.8-7.82-4.88-11.6-7.28-.94-.6-1.87-1.23-2.76-1.88a11.71,11.71,0,0,0-3.23-1.74,27.61,27.61,0,0,0-6.93-1.19c-1.13-.1-2.25-.2-3.32-.38s-2.21-.45-3.33-.64c-2.26-.41-4.51-.72-6.71-1.14-1.1-.21-2.19-.44-3.26-.73l-3.28-.92c-2.22-.6-4.47-1.08-6.74-1.47a56.43,56.43,0,0,0-13.8-.7,51.77,51.77,0,0,0-13.53,2.88,50.56,50.56,0,0,0-4.92,2.06,5.54,5.54,0,0,1-7.7-3.52,44.32,44.32,0,0,0-5.33-12.1A41.13,41.13,0,0,0,174,496.59c-1.64-.83-3.19-1.58-4.72-2.45s-3-1.8-4.48-2.79-2.86-2.05-4.23-3.17-2.83-2.25-4.3-3.28a60.32,60.32,0,0,0-19.4-9.53,45.73,45.73,0,0,0-10.79-1.51,45.07,45.07,0,0,0-5.45.21c-.9.06-1.8.19-2.7.33l-1.34.21a7.7,7.7,0,0,1-1.19.13,1.33,1.33,0,0,1-.75-.15c-.09,0-.17-.21-.21-.55a15.17,15.17,0,0,1,.26-2.46c.13-.9.27-1.8.33-2.7s.18-1.81.18-2.72a46.47,46.47,0,0,0-.82-10.85,51.79,51.79,0,0,0-8.68-19.79c-1-1.48-2.15-2.95-3.27-4.31s-2.16-2.8-3.17-4.25a83.28,83.28,0,0,1-5.5-9,43.13,43.13,0,0,0-14.4-17.82c-6-4.3-17-1.27-20.4-7.78-1.47-2.77,5.89-11.08,5.89-11.08a32.06,32.06,0,0,0,3.7-13.35,31.3,31.3,0,0,0-.41-7c-.38-2.32-1.11-4.51-1.67-6.69q-1.78-6.57-3.14-13.25c-.92-4.44-1.69-8.92-2.33-13.41-.34-2.25-.55-4.49-1-6.8a32.18,32.18,0,0,0-2.11-6.63,33.71,33.71,0,0,0-3.49-6,46.31,46.31,0,0,0-4.57-5.21,70,70,0,0,0-8.8-7.07,1.71,1.71,0,0,1,0-2.85l0,0c.45-.29,1-.57,1.46-.9s.92-.71,1.38-1.06a55.16,55.16,0,0,0,5.16-4.51,42.06,42.06,0,0,0,4.51-5.19,35.24,35.24,0,0,0,3.58-5.88,37.47,37.47,0,0,0,3.62-13.21,120,120,0,0,1,1.9-13.38,122,122,0,0,1,3.44-13.07,41.27,41.27,0,0,0,1.77-13.57,43.52,43.52,0,0,0-.84-6.82,42.82,42.82,0,0,0-2-6.57,40.4,40.4,0,0,0-3-6.15c-.57-1-1.25-1.92-1.89-2.88a23.3,23.3,0,0,1-1.7-2.72s-.1-.46,0-.56c3-3.27,8.69-1.57,12.72-3.33a41.35,41.35,0,0,0,11.39-7.38A40.91,40.91,0,0,0,91,175.15c.27-.5.56-1,.81-1.49l.72-1.54c.47-1,1-2,1.51-3a60.66,60.66,0,0,1,3.54-5.69c1.27-1.85,2.68-3.56,4.11-5.31.7-.89,1.41-1.77,2.06-2.7l1-1.37.94-1.41a54.2,54.2,0,0,0,6.07-12.1,45.58,45.58,0,0,0,2.62-13.27c0-1.13.09-2.26,0-3.39l-.06-1.69-.15-1.69c-.07-1.13-.26-2.25-.42-3.37-.07-.56-.2-1.12-.26-1.65a2,2,0,0,1,.26-1.42,1.65,1.65,0,0,1,1.37-.38c.54,0,1.08.13,1.64.2,1.12.16,2.24.32,3.37.39a47.8,47.8,0,0,0,6.77.09,49.61,49.61,0,0,0,19.47-5.27,50,50,0,0,0,5.79-3.5c.94-.63,1.81-1.34,2.7-2s1.79-1.36,2.69-2q2.72-2,5.49-3.91t5.64-3.7c1.9-1.2,3.83-2.35,5.72-3.58a62.17,62.17,0,0,0,10.66-8.24,30.35,30.35,0,0,0,7-11.4,87.13,87.13,0,0,0,3.42-13,88.26,88.26,0,0,1-3.47,13A30.25,30.25,0,0,1,185,82a62,62,0,0,1-10.68,8.18c-1.89,1.22-3.82,2.36-5.74,3.55s-3.79,2.42-5.65,3.68-3.71,2.56-5.52,3.89l-2.71,2c-.89.68-1.76,1.4-2.7,2a47.94,47.94,0,0,1-5.76,3.45,50,50,0,0,1-6.19,2.6,48.12,48.12,0,0,1-19.86,2.43c-1.12-.07-2.23-.24-3.33-.4-.55-.07-1.12-.19-1.7-.21a2.09,2.09,0,0,0-1.76.53,2.44,2.44,0,0,0-.38,1.79c.07.59.19,1.13.25,1.69.16,1.1.35,2.21.41,3.32l.14,1.68.05,1.67c0,1.12,0,2.24-.05,3.36a45.16,45.16,0,0,1-2.65,13.09,53.17,53.17,0,0,1-6.06,11.93l-.93,1.39-1,1.36c-.65.91-1.35,1.78-2,2.66-1.42,1.72-2.88,3.47-4.17,5.33a62.16,62.16,0,0,0-3.6,5.75c-.54,1-1.08,2-1.54,3l-.72,1.52c-.25.5-.54,1-.81,1.46a41.1,41.1,0,0,1-19.49,17.56c-4.09,1.76-8.43,3.31-12.88,3.25-.11,0-.36-.05-.44,0s0,.39,0,.39v1.3l0,.1a25.27,25.27,0,0,0,1.82,2.94c.62.93,1.28,1.83,1.83,2.81a39.38,39.38,0,0,1,3,6,40,40,0,0,1,1.9,6.41,43.76,43.76,0,0,1,.81,6.65,40.18,40.18,0,0,1-1.76,13.21,123.3,123.3,0,0,0-3.5,13.17,120.56,120.56,0,0,0-1.95,13.48,36.51,36.51,0,0,1-3.54,12.81,34.53,34.53,0,0,1-3.48,5.69,41.17,41.17,0,0,1-4.4,5,53,53,0,0,1-5.06,4.4c-.44.33-.9.72-1.32,1s-.93.56-1.43.87A7.08,7.08,0,0,0,39,293.06a4.33,4.33,0,0,0-.95,1.73c0,.11-.15.33-.11.44s.37.25.37.25a75.16,75.16,0,0,1,10.65,8.34,45,45,0,0,1,4.41,5.06,33.63,33.63,0,0,1,3.34,5.78,31.76,31.76,0,0,1,2,6.36c.4,2.17.62,4.47.95,6.73.63,4.52,1.4,9,2.31,13.5s1.95,8.93,3.12,13.34c.58,2.24,1.29,4.38,1.63,6.56a29.62,29.62,0,0,1,.38,6.65c-.2,9.08-6,16.67-10,24.78,0,0-.65.79-.51,1s1.12.09,1.12.09a41.44,41.44,0,0,1,34.58,24.91v.05a85.2,85.2,0,0,0,5.6,9.25c1,1.48,2.1,2.93,3.22,4.34s2.19,2.77,3.2,4.23a50,50,0,0,1,8.39,19.15,45.18,45.18,0,0,1,.79,10.45c0,.88-.11,1.75-.18,2.62s-.2,1.75-.32,2.62a15.62,15.62,0,0,0-.28,2.85,2.4,2.4,0,0,0,.9,1.8,3,3,0,0,0,1.79.49,9.19,9.19,0,0,0,1.47-.16l1.31-.19c.86-.14,1.73-.27,2.61-.33a45.81,45.81,0,0,1,5.24-.2,43.91,43.91,0,0,1,10.38,1.47,58.25,58.25,0,0,1,18.82,9.28c1.45,1,2.83,2.09,4.21,3.21s2.85,2.24,4.34,3.26,3,2,4.61,2.87,3.23,1.71,4.78,2.49a39.19,39.19,0,0,1,15.49,13.72,47.67,47.67,0,0,1,6.75,19.73s-.14,1.3.2,1.45,1.21-.81,1.21-.81a51.43,51.43,0,0,1,25-8.82,54.9,54.9,0,0,1,13.36.68c2.21.39,4.4.86,6.57,1.45l3.28.92c1.13.3,2.26.55,3.39.76,2.26.43,4.52.75,6.73,1.15,1.12.19,2.15.44,3.36.65s2.32.29,3.45.39a26.29,26.29,0,0,1,6.47,1.1,10,10,0,0,1,2.74,1.48c.93.69,1.89,1.34,2.86,2,3.89,2.47,7.93,4.53,11.47,7.21a24.85,24.85,0,0,1,4.73,4.54,22.17,22.17,0,0,1,3.19,5.65s.19,1.54.61,1.61,1-1.36,1-1.36c1.75-2.28,3.57-4.5,5.52-6.59a66.46,66.46,0,0,1,6.25-5.85A48.21,48.21,0,0,1,321.64,531c1.33-.48,2.72-.82,4.09-1.19s2.77-.61,4.19-.79c2.83-.42,5.76-.84,8.61-1.36q8.61-1.54,17.05-3.86h.06l.05,0a16.6,16.6,0,0,1,8.79-1c4.95,1.43,10,1.84,14.78,2.92a30.64,30.64,0,0,1,6.92,2.33A20.23,20.23,0,0,1,392,532.2s.82,1.44,1.26,1.33.44-1.77.44-1.77c2.14-8.61,5.65-17,11.32-23.76a47,47,0,0,1,9.75-8.87c1.8-1.26,3.74-2.37,5.67-3.58s3.81-2.43,5.69-3.69,3.73-2.55,5.56-3.87,3.64-2.74,5.43-4a47.31,47.31,0,0,1,11.74-6,50.19,50.19,0,0,1,6.39-1.72,48,48,0,0,1,6.56-.81,45.43,45.43,0,0,1,6.6.11c1.1.07,2.2.24,3.3.39.57.07,1.14.14,1.74.19a3.91,3.91,0,0,0,2.18-.3,2.21,2.21,0,0,0,1-1.11,4.06,4.06,0,0,0,.23-1.12,11,11,0,0,0-.11-1.86c-.11-1.11-.28-2.21-.35-3.31a58.92,58.92,0,0,1-.21-6.64,48.59,48.59,0,0,1,2.09-13A44.4,44.4,0,0,1,484,437c.63-.9,1.26-1.81,2-2.66s1.4-1.72,2.13-2.61c1.43-1.77,2.78-3.61,4-5.51a66.86,66.86,0,0,0,3.49-5.88l1.61-2.92c.57-.95,1.16-1.88,1.76-2.81A48.76,48.76,0,0,1,507.76,404.75Z"/><path class="cls-2" d="M348.41,365.14c0,8.12-7.74,12.33-15.19,8.49-13-6.66-26.05-13.36-38.69-20.51a10.09,10.09,0,0,0-11.24,0C271,360,258.46,366.3,246.05,372.9c-4.05,2.17-8.09,3.62-12.25.55s-4.57-7.25-3.61-12.2c2.58-14.57,4.8-29.27,7.53-43.83a6.64,6.64,0,0,0-2.24-6.86c-10.76-10.32-21.34-20.79-32-31.13-3.34-3.23-5.71-6.57-4.16-11.58s5.93-6.42,10.67-7.09c14.32-2,28.63-4.15,43-6.06a8.29,8.29,0,0,0,7.09-5.33c6.27-13.21,12.89-26.23,19.24-39.4,1.85-4.21,4.74-7.38,9.59-7.38s7.74,3.32,9.73,7.62c6.23,12.89,12.89,25.79,19,38.91a8.71,8.71,0,0,0,7.4,5.76c14.15,1.88,28.37,4,42.42,6,4.69.65,9.05,1.53,10.91,6.76s-1,8.94-4.57,12.43c-10.55,10.32-21,20.63-31.51,30.79a6,6,0,0,0-2.2,6.34c2.84,15.17,5.16,30.38,7.74,45.57A16.62,16.62,0,0,1,348.41,365.14Z"/><path class="cls-3" d="M103.82,222.2c-6.89,20.35-16.27,57.55-8.35,102,12.69,71.24,65.63,138.14,141,161.39,62.44,19.26,116.6,1.23,136.34-6.49"/><path class="cls-3" d="M476.81,375.21c6.89-20.35,16.26-57.55,8.34-102C472.47,202,419.53,135,344.17,111.79c-62.45-19.26-116.6-1.23-136.34,6.5"/></g></g></svg>